<svg width="1062" height="280" viewBox="0 0 1062 280" fill="none" xmlns="http://www.w3.org/2000/svg">
<path opacity="0.5" d="M2.22 2.6H3.336V11H2.22V3.764L0.168 4.88V3.716L2.22 2.6ZM10.4336 9.968C9.86563 10.76 9.06963 11.156 8.04563 11.156C7.02163 11.156 6.22563 10.76 5.65763 9.968C5.08963 9.176 4.80563 8.12 4.80563 6.8C4.80563 5.48 5.08963 4.424 5.65763 3.632C6.22563 2.84 7.02163 2.444 8.04563 2.444C9.06963 2.444 9.86563 2.84 10.4336 3.632C11.0016 4.424 11.2856 5.48 11.2856 6.8C11.2856 8.12 11.0016 9.176 10.4336 9.968ZM6.47363 9.212C6.84163 9.78 7.36563 10.064 8.04563 10.064C8.72563 10.064 9.24963 9.78 9.61763 9.212C9.99363 8.644 10.1816 7.84 10.1816 6.8C10.1816 5.76 9.99363 4.956 9.61763 4.388C9.24963 3.812 8.72563 3.524 8.04563 3.524C7.36563 3.524 6.84163 3.808 6.47363 4.376C6.10563 4.944 5.92163 5.752 5.92163 6.8C5.92163 7.84 6.10563 8.644 6.47363 9.212ZM17.9922 9.968C17.4242 10.76 16.6282 11.156 15.6042 11.156C14.5802 11.156 13.7842 10.76 13.2162 9.968C12.6482 9.176 12.3642 8.12 12.3642 6.8C12.3642 5.48 12.6482 4.424 13.2162 3.632C13.7842 2.84 14.5802 2.444 15.6042 2.444C16.6282 2.444 17.4242 2.84 17.9922 3.632C18.5602 4.424 18.8442 5.48 18.8442 6.8C18.8442 8.12 18.5602 9.176 17.9922 9.968ZM14.0322 9.212C14.4002 9.78 14.9242 10.064 15.6042 10.064C16.2842 10.064 16.8082 9.78 17.1762 9.212C17.5522 8.644 17.7402 7.84 17.7402 6.8C17.7402 5.76 17.5522 4.956 17.1762 4.388C16.8082 3.812 16.2842 3.524 15.6042 3.524C14.9242 3.524 14.4002 3.808 14.0322 4.376C13.6642 4.944 13.4802 5.752 13.4802 6.8C13.4802 7.84 13.6642 8.644 14.0322 9.212ZM21.7044 6.164C21.1604 6.164 20.7084 5.984 20.3484 5.624C19.9884 5.264 19.8084 4.824 19.8084 4.304C19.8084 3.792 19.9884 3.356 20.3484 2.996C20.7164 2.628 21.1684 2.444 21.7044 2.444C22.2484 2.444 22.7004 2.624 23.0604 2.984C23.4204 3.344 23.6004 3.784 23.6004 4.304C23.6004 4.824 23.4204 5.264 23.0604 5.624C22.7084 5.984 22.2564 6.164 21.7044 6.164ZM20.2404 11L26.1324 2.6H27.2484L21.3444 11H20.2404ZM21.0084 5.012C21.1924 5.196 21.4244 5.288 21.7044 5.288C21.9844 5.288 22.2124 5.192 22.3884 5C22.5724 4.808 22.6644 4.576 22.6644 4.304C22.6644 4.032 22.5724 3.804 22.3884 3.62C22.2124 3.428 21.9844 3.332 21.7044 3.332C21.4244 3.332 21.1924 3.428 21.0084 3.62C20.8324 3.804 20.7444 4.032 20.7444 4.304C20.7444 4.584 20.8324 4.82 21.0084 5.012ZM27.1284 10.604C26.7684 10.964 26.3164 11.144 25.7724 11.144C25.2284 11.144 24.7764 10.964 24.4164 10.604C24.0564 10.244 23.8764 9.804 23.8764 9.284C23.8764 8.764 24.0564 8.324 24.4164 7.964C24.7764 7.604 25.2284 7.424 25.7724 7.424C26.3164 7.424 26.7684 7.604 27.1284 7.964C27.4884 8.324 27.6684 8.764 27.6684 9.284C27.6684 9.804 27.4884 10.244 27.1284 10.604ZM25.0764 9.98C25.2604 10.164 25.4924 10.256 25.7724 10.256C26.0524 10.256 26.2804 10.164 26.4564 9.98C26.6404 9.788 26.7324 9.556 26.7324 9.284C26.7324 9.012 26.6404 8.784 26.4564 8.6C26.2804 8.408 26.0524 8.312 25.7724 8.312C25.4924 8.312 25.2604 8.408 25.0764 8.6C24.9004 8.784 24.8124 9.012 24.8124 9.284C24.8124 9.556 24.9004 9.788 25.0764 9.98Z" fill="#202224"/>
<path opacity="0.5" d="M9.896 52.656C10.304 52.864 10.624 53.144 10.856 53.496C11.088 53.848 11.204 54.248 11.204 54.696C11.204 55.464 10.936 56.068 10.4 56.508C9.864 56.94 9.172 57.156 8.324 57.156C7.484 57.156 6.796 56.94 6.26 56.508C5.724 56.068 5.456 55.464 5.456 54.696C5.456 54.248 5.572 53.848 5.804 53.496C6.036 53.144 6.356 52.864 6.764 52.656C6.076 52.224 5.732 51.612 5.732 50.82C5.732 50.06 5.984 49.476 6.488 49.068C7 48.652 7.612 48.444 8.324 48.444C9.044 48.444 9.656 48.652 10.16 49.068C10.672 49.476 10.928 50.06 10.928 50.82C10.928 51.612 10.584 52.224 9.896 52.656ZM8.324 49.512C7.9 49.512 7.544 49.624 7.256 49.848C6.976 50.072 6.836 50.404 6.836 50.844C6.836 51.268 6.98 51.6 7.268 51.84C7.556 52.072 7.908 52.188 8.324 52.188C8.74 52.188 9.092 52.072 9.38 51.84C9.668 51.6 9.812 51.268 9.812 50.844C9.812 50.404 9.672 50.072 9.392 49.848C9.112 49.624 8.756 49.512 8.324 49.512ZM8.324 56.088C8.86 56.088 9.288 55.964 9.608 55.716C9.936 55.46 10.1 55.096 10.1 54.624C10.1 54.16 9.936 53.804 9.608 53.556C9.288 53.3 8.86 53.172 8.324 53.172C7.796 53.172 7.368 53.3 7.04 53.556C6.72 53.804 6.56 54.16 6.56 54.624C6.56 55.096 6.72 55.46 7.04 55.716C7.368 55.964 7.796 56.088 8.324 56.088ZM17.8242 55.968C17.2563 56.76 16.4603 57.156 15.4363 57.156C14.4123 57.156 13.6163 56.76 13.0483 55.968C12.4803 55.176 12.1963 54.12 12.1963 52.8C12.1963 51.48 12.4803 50.424 13.0483 49.632C13.6163 48.84 14.4123 48.444 15.4363 48.444C16.4603 48.444 17.2563 48.84 17.8242 49.632C18.3923 50.424 18.6763 51.48 18.6763 52.8C18.6763 54.12 18.3923 55.176 17.8242 55.968ZM13.8643 55.212C14.2323 55.78 14.7563 56.064 15.4363 56.064C16.1163 56.064 16.6403 55.78 17.0083 55.212C17.3843 54.644 17.5723 53.84 17.5723 52.8C17.5723 51.76 17.3843 50.956 17.0083 50.388C16.6403 49.812 16.1163 49.524 15.4363 49.524C14.7563 49.524 14.2323 49.808 13.8643 50.376C13.4963 50.944 13.3123 51.752 13.3123 52.8C13.3123 53.84 13.4963 54.644 13.8643 55.212ZM21.5365 52.164C20.9925 52.164 20.5405 51.984 20.1805 51.624C19.8205 51.264 19.6405 50.824 19.6405 50.304C19.6405 49.792 19.8205 49.356 20.1805 48.996C20.5485 48.628 21.0005 48.444 21.5365 48.444C22.0805 48.444 22.5325 48.624 22.8925 48.984C23.2525 49.344 23.4325 49.784 23.4325 50.304C23.4325 50.824 23.2525 51.264 22.8925 51.624C22.5405 51.984 22.0885 52.164 21.5365 52.164ZM20.0725 57L25.9645 48.6H27.0805L21.1765 57H20.0725ZM20.8405 51.012C21.0245 51.196 21.2565 51.288 21.5365 51.288C21.8165 51.288 22.0445 51.192 22.2205 51C22.4045 50.808 22.4965 50.576 22.4965 50.304C22.4965 50.032 22.4045 49.804 22.2205 49.62C22.0445 49.428 21.8165 49.332 21.5365 49.332C21.2565 49.332 21.0245 49.428 20.8405 49.62C20.6645 49.804 20.5765 50.032 20.5765 50.304C20.5765 50.584 20.6645 50.82 20.8405 51.012ZM26.9605 56.604C26.6005 56.964 26.1485 57.144 25.6045 57.144C25.0605 57.144 24.6085 56.964 24.2485 56.604C23.8885 56.244 23.7085 55.804 23.7085 55.284C23.7085 54.764 23.8885 54.324 24.2485 53.964C24.6085 53.604 25.0605 53.424 25.6045 53.424C26.1485 53.424 26.6005 53.604 26.9605 53.964C27.3205 54.324 27.5005 54.764 27.5005 55.284C27.5005 55.804 27.3205 56.244 26.9605 56.604ZM24.9085 55.98C25.0925 56.164 25.3245 56.256 25.6045 56.256C25.8845 56.256 26.1125 56.164 26.2885 55.98C26.4725 55.788 26.5645 55.556 26.5645 55.284C26.5645 55.012 26.4725 54.784 26.2885 54.6C26.1125 54.408 25.8845 54.312 25.6045 54.312C25.3245 54.312 25.0925 54.408 24.9085 54.6C24.7325 54.784 24.6445 55.012 24.6445 55.284C24.6445 55.556 24.7325 55.788 24.9085 55.98Z" fill="#202224"/>
<path opacity="0.5" d="M9.228 97.504C10.068 97.504 10.76 97.768 11.304 98.296C11.848 98.816 12.12 99.492 12.12 100.324C12.12 101.156 11.848 101.836 11.304 102.364C10.76 102.892 10.068 103.156 9.228 103.156C8.38 103.156 7.684 102.892 7.14 102.364C6.604 101.836 6.336 101.156 6.336 100.324C6.336 99.676 6.504 99.116 6.84 98.644L9.54 94.6H10.812L8.82 97.528C8.996 97.512 9.132 97.504 9.228 97.504ZM7.932 101.608C8.268 101.928 8.7 102.088 9.228 102.088C9.756 102.088 10.184 101.928 10.512 101.608C10.848 101.28 11.016 100.852 11.016 100.324C11.016 99.796 10.848 99.372 10.512 99.052C10.184 98.732 9.756 98.572 9.228 98.572C8.692 98.572 8.26 98.732 7.932 99.052C7.604 99.372 7.44 99.796 7.44 100.324C7.44 100.852 7.604 101.28 7.932 101.608ZM18.625 101.968C18.057 102.76 17.261 103.156 16.237 103.156C15.213 103.156 14.417 102.76 13.849 101.968C13.281 101.176 12.997 100.12 12.997 98.8C12.997 97.48 13.281 96.424 13.849 95.632C14.417 94.84 15.213 94.444 16.237 94.444C17.261 94.444 18.057 94.84 18.625 95.632C19.193 96.424 19.477 97.48 19.477 98.8C19.477 100.12 19.193 101.176 18.625 101.968ZM14.665 101.212C15.033 101.78 15.557 102.064 16.237 102.064C16.917 102.064 17.441 101.78 17.809 101.212C18.185 100.644 18.373 99.84 18.373 98.8C18.373 97.76 18.185 96.956 17.809 96.388C17.441 95.812 16.917 95.524 16.237 95.524C15.557 95.524 15.033 95.808 14.665 96.376C14.297 96.944 14.113 97.752 14.113 98.8C14.113 99.84 14.297 100.644 14.665 101.212ZM22.3373 98.164C21.7933 98.164 21.3413 97.984 20.9813 97.624C20.6213 97.264 20.4413 96.824 20.4413 96.304C20.4413 95.792 20.6213 95.356 20.9813 94.996C21.3493 94.628 21.8013 94.444 22.3373 94.444C22.8813 94.444 23.3333 94.624 23.6933 94.984C24.0533 95.344 24.2333 95.784 24.2333 96.304C24.2333 96.824 24.0533 97.264 23.6933 97.624C23.3413 97.984 22.8893 98.164 22.3373 98.164ZM20.8733 103L26.7653 94.6H27.8813L21.9773 103H20.8733ZM21.6413 97.012C21.8253 97.196 22.0573 97.288 22.3373 97.288C22.6173 97.288 22.8453 97.192 23.0213 97C23.2053 96.808 23.2973 96.576 23.2973 96.304C23.2973 96.032 23.2053 95.804 23.0213 95.62C22.8453 95.428 22.6173 95.332 22.3373 95.332C22.0573 95.332 21.8253 95.428 21.6413 95.62C21.4653 95.804 21.3773 96.032 21.3773 96.304C21.3773 96.584 21.4653 96.82 21.6413 97.012ZM27.7613 102.604C27.4013 102.964 26.9493 103.144 26.4053 103.144C25.8613 103.144 25.4093 102.964 25.0493 102.604C24.6893 102.244 24.5093 101.804 24.5093 101.284C24.5093 100.764 24.6893 100.324 25.0493 99.964C25.4093 99.604 25.8613 99.424 26.4053 99.424C26.9493 99.424 27.4013 99.604 27.7613 99.964C28.1213 100.324 28.3013 100.764 28.3013 101.284C28.3013 101.804 28.1213 102.244 27.7613 102.604ZM25.7093 101.98C25.8933 102.164 26.1253 102.256 26.4053 102.256C26.6853 102.256 26.9133 102.164 27.0893 101.98C27.2733 101.788 27.3653 101.556 27.3653 101.284C27.3653 101.012 27.2733 100.784 27.0893 100.6C26.9133 100.408 26.6853 100.312 26.4053 100.312C26.1253 100.312 25.8933 100.408 25.7093 100.6C25.5333 100.784 25.4453 101.012 25.4453 101.284C25.4453 101.556 25.5333 101.788 25.7093 101.98Z" fill="#202224"/>
<path opacity="0.5" d="M11.732 146.36V147.404H10.712V149H9.596V147.404H5.288V146.36L8.3 140.6H9.5L6.5 146.36H9.596V143.984H10.712V146.36H11.732ZM18.0703 147.968C17.5023 148.76 16.7063 149.156 15.6823 149.156C14.6583 149.156 13.8623 148.76 13.2943 147.968C12.7263 147.176 12.4423 146.12 12.4423 144.8C12.4423 143.48 12.7263 142.424 13.2943 141.632C13.8623 140.84 14.6583 140.444 15.6823 140.444C16.7063 140.444 17.5023 140.84 18.0703 141.632C18.6383 142.424 18.9223 143.48 18.9223 144.8C18.9223 146.12 18.6383 147.176 18.0703 147.968ZM14.1103 147.212C14.4783 147.78 15.0023 148.064 15.6823 148.064C16.3623 148.064 16.8863 147.78 17.2543 147.212C17.6303 146.644 17.8183 145.84 17.8183 144.8C17.8183 143.76 17.6303 142.956 17.2543 142.388C16.8863 141.812 16.3623 141.524 15.6823 141.524C15.0023 141.524 14.4783 141.808 14.1103 142.376C13.7423 142.944 13.5583 143.752 13.5583 144.8C13.5583 145.84 13.7423 146.644 14.1103 147.212ZM21.7826 144.164C21.2386 144.164 20.7866 143.984 20.4266 143.624C20.0666 143.264 19.8866 142.824 19.8866 142.304C19.8866 141.792 20.0666 141.356 20.4266 140.996C20.7946 140.628 21.2466 140.444 21.7826 140.444C22.3266 140.444 22.7786 140.624 23.1386 140.984C23.4986 141.344 23.6786 141.784 23.6786 142.304C23.6786 142.824 23.4986 143.264 23.1386 143.624C22.7866 143.984 22.3346 144.164 21.7826 144.164ZM20.3186 149L26.2106 140.6H27.3266L21.4226 149H20.3186ZM21.0866 143.012C21.2706 143.196 21.5026 143.288 21.7826 143.288C22.0626 143.288 22.2906 143.192 22.4666 143C22.6506 142.808 22.7426 142.576 22.7426 142.304C22.7426 142.032 22.6506 141.804 22.4666 141.62C22.2906 141.428 22.0626 141.332 21.7826 141.332C21.5026 141.332 21.2706 141.428 21.0866 141.62C20.9106 141.804 20.8226 142.032 20.8226 142.304C20.8226 142.584 20.9106 142.82 21.0866 143.012ZM27.2066 148.604C26.8466 148.964 26.3946 149.144 25.8506 149.144C25.3066 149.144 24.8546 148.964 24.4946 148.604C24.1346 148.244 23.9546 147.804 23.9546 147.284C23.9546 146.764 24.1346 146.324 24.4946 145.964C24.8546 145.604 25.3066 145.424 25.8506 145.424C26.3946 145.424 26.8466 145.604 27.2066 145.964C27.5666 146.324 27.7466 146.764 27.7466 147.284C27.7466 147.804 27.5666 148.244 27.2066 148.604ZM25.1546 147.98C25.3386 148.164 25.5706 148.256 25.8506 148.256C26.1306 148.256 26.3586 148.164 26.5346 147.98C26.7186 147.788 26.8106 147.556 26.8106 147.284C26.8106 147.012 26.7186 146.784 26.5346 146.6C26.3586 146.408 26.1306 146.312 25.8506 146.312C25.5706 146.312 25.3386 146.408 25.1546 146.6C24.9786 146.784 24.8906 147.012 24.8906 147.284C24.8906 147.556 24.9786 147.788 25.1546 147.98Z" fill="#202224"/>
<path opacity="0.5" d="M6.456 195V194.088L9.42 191.088C10.212 190.296 10.608 189.608 10.608 189.024C10.608 188.552 10.464 188.184 10.176 187.92C9.896 187.656 9.548 187.524 9.132 187.524C8.668 187.524 8.288 187.652 7.992 187.908C7.704 188.156 7.56 188.532 7.56 189.036H6.456C6.456 188.196 6.716 187.556 7.236 187.116C7.756 186.668 8.384 186.444 9.12 186.444C9.816 186.444 10.424 186.672 10.944 187.128C11.464 187.584 11.724 188.216 11.724 189.024C11.724 189.888 11.228 190.808 10.236 191.784L8.076 193.92H11.88V195H6.456ZM18.3907 193.968C17.8227 194.76 17.0267 195.156 16.0027 195.156C14.9787 195.156 14.1827 194.76 13.6147 193.968C13.0467 193.176 12.7627 192.12 12.7627 190.8C12.7627 189.48 13.0467 188.424 13.6147 187.632C14.1827 186.84 14.9787 186.444 16.0027 186.444C17.0267 186.444 17.8227 186.84 18.3907 187.632C18.9587 188.424 19.2427 189.48 19.2427 190.8C19.2427 192.12 18.9587 193.176 18.3907 193.968ZM14.4307 193.212C14.7987 193.78 15.3227 194.064 16.0027 194.064C16.6827 194.064 17.2067 193.78 17.5747 193.212C17.9507 192.644 18.1387 191.84 18.1387 190.8C18.1387 189.76 17.9507 188.956 17.5747 188.388C17.2067 187.812 16.6827 187.524 16.0027 187.524C15.3227 187.524 14.7987 187.808 14.4307 188.376C14.0627 188.944 13.8787 189.752 13.8787 190.8C13.8787 191.84 14.0627 192.644 14.4307 193.212ZM22.1029 190.164C21.5589 190.164 21.1069 189.984 20.7469 189.624C20.3869 189.264 20.2069 188.824 20.2069 188.304C20.2069 187.792 20.3869 187.356 20.7469 186.996C21.1149 186.628 21.5669 186.444 22.1029 186.444C22.6469 186.444 23.0989 186.624 23.4589 186.984C23.8189 187.344 23.9989 187.784 23.9989 188.304C23.9989 188.824 23.8189 189.264 23.4589 189.624C23.1069 189.984 22.6549 190.164 22.1029 190.164ZM20.6389 195L26.5309 186.6H27.6469L21.7429 195H20.6389ZM21.4069 189.012C21.5909 189.196 21.8229 189.288 22.1029 189.288C22.3829 189.288 22.6109 189.192 22.7869 189C22.9709 188.808 23.0629 188.576 23.0629 188.304C23.0629 188.032 22.9709 187.804 22.7869 187.62C22.6109 187.428 22.3829 187.332 22.1029 187.332C21.8229 187.332 21.5909 187.428 21.4069 187.62C21.2309 187.804 21.1429 188.032 21.1429 188.304C21.1429 188.584 21.2309 188.82 21.4069 189.012ZM27.5269 194.604C27.1669 194.964 26.7149 195.144 26.1709 195.144C25.6269 195.144 25.1749 194.964 24.8149 194.604C24.4549 194.244 24.2749 193.804 24.2749 193.284C24.2749 192.764 24.4549 192.324 24.8149 191.964C25.1749 191.604 25.6269 191.424 26.1709 191.424C26.7149 191.424 27.1669 191.604 27.5269 191.964C27.8869 192.324 28.0669 192.764 28.0669 193.284C28.0669 193.804 27.8869 194.244 27.5269 194.604ZM25.4749 193.98C25.6589 194.164 25.8909 194.256 26.1709 194.256C26.4509 194.256 26.6789 194.164 26.8549 193.98C27.0389 193.788 27.1309 193.556 27.1309 193.284C27.1309 193.012 27.0389 192.784 26.8549 192.6C26.6789 192.408 26.4509 192.312 26.1709 192.312C25.8909 192.312 25.6589 192.408 25.4749 192.6C25.2989 192.784 25.2109 193.012 25.2109 193.284C25.2109 193.556 25.2989 193.788 25.4749 193.98Z" fill="#202224"/>
<path opacity="0.5" d="M18.168 239.968C17.6 240.76 16.804 241.156 15.78 241.156C14.756 241.156 13.96 240.76 13.392 239.968C12.824 239.176 12.54 238.12 12.54 236.8C12.54 235.48 12.824 234.424 13.392 233.632C13.96 232.84 14.756 232.444 15.78 232.444C16.804 232.444 17.6 232.84 18.168 233.632C18.736 234.424 19.02 235.48 19.02 236.8C19.02 238.12 18.736 239.176 18.168 239.968ZM14.208 239.212C14.576 239.78 15.1 240.064 15.78 240.064C16.46 240.064 16.984 239.78 17.352 239.212C17.728 238.644 17.916 237.84 17.916 236.8C17.916 235.76 17.728 234.956 17.352 234.388C16.984 233.812 16.46 233.524 15.78 233.524C15.1 233.524 14.576 233.808 14.208 234.376C13.84 234.944 13.656 235.752 13.656 236.8C13.656 237.84 13.84 238.644 14.208 239.212ZM21.8802 236.164C21.3362 236.164 20.8842 235.984 20.5242 235.624C20.1642 235.264 19.9842 234.824 19.9842 234.304C19.9842 233.792 20.1642 233.356 20.5242 232.996C20.8922 232.628 21.3442 232.444 21.8802 232.444C22.4242 232.444 22.8762 232.624 23.2362 232.984C23.5962 233.344 23.7762 233.784 23.7762 234.304C23.7762 234.824 23.5962 235.264 23.2362 235.624C22.8842 235.984 22.4322 236.164 21.8802 236.164ZM20.4162 241L26.3082 232.6H27.4242L21.5202 241H20.4162ZM21.1842 235.012C21.3682 235.196 21.6002 235.288 21.8802 235.288C22.1602 235.288 22.3882 235.192 22.5642 235C22.7482 234.808 22.8402 234.576 22.8402 234.304C22.8402 234.032 22.7482 233.804 22.5642 233.62C22.3882 233.428 22.1602 233.332 21.8802 233.332C21.6002 233.332 21.3682 233.428 21.1842 233.62C21.0082 233.804 20.9202 234.032 20.9202 234.304C20.9202 234.584 21.0082 234.82 21.1842 235.012ZM27.3042 240.604C26.9442 240.964 26.4922 241.144 25.9482 241.144C25.4042 241.144 24.9522 240.964 24.5922 240.604C24.2322 240.244 24.0522 239.804 24.0522 239.284C24.0522 238.764 24.2322 238.324 24.5922 237.964C24.9522 237.604 25.4042 237.424 25.9482 237.424C26.4922 237.424 26.9442 237.604 27.3042 237.964C27.6642 238.324 27.8442 238.764 27.8442 239.284C27.8442 239.804 27.6642 240.244 27.3042 240.604ZM25.2522 239.98C25.4362 240.164 25.6682 240.256 25.9482 240.256C26.2282 240.256 26.4562 240.164 26.6322 239.98C26.8162 239.788 26.9082 239.556 26.9082 239.284C26.9082 239.012 26.8162 238.784 26.6322 238.6C26.4562 238.408 26.2282 238.312 25.9482 238.312C25.6682 238.312 25.4362 238.408 25.2522 238.6C25.0762 238.784 24.9882 239.012 24.9882 239.284C24.9882 239.556 25.0762 239.788 25.2522 239.98Z" fill="#202224"/>
<path opacity="0.5" d="M59.6 268.6V277H58.496V273.784H57.308L54.548 277H53.18L56.012 273.736C55.412 273.608 54.916 273.308 54.524 272.836C54.132 272.364 53.936 271.82 53.936 271.204C53.936 270.484 54.188 269.872 54.692 269.368C55.204 268.856 55.824 268.6 56.552 268.6H59.6ZM56.576 272.776H58.496V269.644H56.576C56.152 269.644 55.788 269.796 55.484 270.1C55.188 270.404 55.04 270.772 55.04 271.204C55.04 271.636 55.188 272.008 55.484 272.32C55.788 272.624 56.152 272.776 56.576 272.776ZM65.084 271H66.128V277H65.084V274.492H62.336V277H61.292V271H62.336V273.496H65.084V271ZM71.9496 273.4C72.2776 273.552 72.5296 273.776 72.7056 274.072C72.8896 274.36 72.9816 274.688 72.9816 275.056C72.9816 275.616 72.7936 276.08 72.4176 276.448C72.0496 276.816 71.5176 277 70.8216 277H67.7256V274.036V271H68.7456H70.2456C70.8296 271 71.2936 271.16 71.6376 271.48C71.9896 271.792 72.1656 272.184 72.1656 272.656C72.1656 272.928 72.0936 273.176 71.9496 273.4ZM68.7456 271.912V273.16H70.8216C70.8376 273.16 70.8696 273.164 70.9176 273.172C70.9656 273.172 71.0016 273.172 71.0256 273.172C71.1136 273.012 71.1576 272.864 71.1576 272.728C71.1576 272.464 71.0656 272.26 70.8816 272.116C70.6976 271.964 70.4616 271.896 70.1736 271.912H68.7456ZM70.7736 276.076C71.1496 276.076 71.4376 275.984 71.6376 275.8C71.8456 275.616 71.9496 275.364 71.9496 275.044C71.9496 274.724 71.8456 274.476 71.6376 274.3C71.4376 274.124 71.1496 274.036 70.7736 274.036H68.7456V276.076H70.7736ZM74.0543 268.6H75.3383V269.884C75.3383 270.348 75.2263 270.724 75.0023 271.012C74.7863 271.292 74.4703 271.448 74.0543 271.48V270.928C74.2623 270.888 74.4183 270.796 74.5223 270.652C74.6263 270.5 74.6783 270.244 74.6783 269.884H74.0543V268.6ZM76.6123 277V276.088L79.5763 273.088C80.3683 272.296 80.7643 271.608 80.7643 271.024C80.7643 270.552 80.6203 270.184 80.3323 269.92C80.0523 269.656 79.7043 269.524 79.2883 269.524C78.8243 269.524 78.4443 269.652 78.1483 269.908C77.8603 270.156 77.7163 270.532 77.7163 271.036H76.6123C76.6123 270.196 76.8723 269.556 77.3923 269.116C77.9123 268.668 78.5403 268.444 79.2763 268.444C79.9723 268.444 80.5803 268.672 81.1003 269.128C81.6203 269.584 81.8803 270.216 81.8803 271.024C81.8803 271.888 81.3843 272.808 80.3923 273.784L78.2323 275.92H82.0363V277H76.6123ZM89.0172 274.36V275.404H87.9972V277H86.8812V275.404H82.5732V274.36L85.5852 268.6H86.7852L83.7852 274.36H86.8812V271.984H87.9972V274.36H89.0172Z" fill="#202224"/>
<path opacity="0.5" d="M145.292 270.472C146.02 271.048 146.384 271.824 146.384 272.8C146.384 273.776 146.02 274.552 145.292 275.128C144.572 275.704 143.608 276.032 142.4 276.112V277.06H141.308V276.112C140.108 276.032 139.144 275.704 138.416 275.128C137.696 274.552 137.336 273.776 137.336 272.8C137.336 271.824 137.696 271.048 138.416 270.472C139.144 269.896 140.108 269.568 141.308 269.488V268.54H142.4V269.488C143.608 269.568 144.572 269.896 145.292 270.472ZM139.196 271.18C138.692 271.556 138.44 272.096 138.44 272.8C138.44 273.504 138.692 274.048 139.196 274.432C139.7 274.808 140.404 275.028 141.308 275.092V270.508C140.404 270.572 139.7 270.796 139.196 271.18ZM142.4 275.092C143.304 275.028 144.008 274.808 144.512 274.432C145.016 274.048 145.268 273.504 145.268 272.8C145.268 272.096 145.016 271.556 144.512 271.18C144.008 270.796 143.304 270.572 142.4 270.508V275.092ZM148.215 274.48C148.303 275.024 148.531 275.448 148.899 275.752C149.275 276.056 149.735 276.208 150.279 276.208C150.647 276.208 150.975 276.128 151.263 275.968C151.559 275.8 151.771 275.588 151.899 275.332H152.991C152.815 275.884 152.483 276.328 151.995 276.664C151.507 276.992 150.931 277.156 150.267 277.156C149.339 277.156 148.587 276.86 148.011 276.268C147.435 275.668 147.147 274.912 147.147 274C147.147 273.096 147.435 272.344 148.011 271.744C148.587 271.144 149.335 270.844 150.255 270.844C151.135 270.844 151.843 271.156 152.379 271.78C152.923 272.396 153.195 273.14 153.195 274.012C153.195 274.164 153.183 274.32 153.159 274.48H148.215ZM148.215 273.556H152.127C152.055 272.996 151.843 272.568 151.491 272.272C151.139 271.976 150.723 271.828 150.243 271.828C149.691 271.828 149.235 271.984 148.875 272.296C148.523 272.608 148.303 273.028 148.215 273.556ZM158.563 273.4C158.891 273.552 159.143 273.776 159.319 274.072C159.503 274.36 159.595 274.688 159.595 275.056C159.595 275.616 159.407 276.08 159.031 276.448C158.663 276.816 158.131 277 157.435 277H154.339V274.036V271H155.359H156.859C157.443 271 157.907 271.16 158.251 271.48C158.603 271.792 158.779 272.184 158.779 272.656C158.779 272.928 158.707 273.176 158.563 273.4ZM155.359 271.912V273.16H157.435C157.451 273.16 157.483 273.164 157.531 273.172C157.579 273.172 157.615 273.172 157.639 273.172C157.727 273.012 157.771 272.864 157.771 272.728C157.771 272.464 157.679 272.26 157.495 272.116C157.311 271.964 157.075 271.896 156.787 271.912H155.359ZM157.387 276.076C157.763 276.076 158.051 275.984 158.251 275.8C158.459 275.616 158.563 275.364 158.563 275.044C158.563 274.724 158.459 274.476 158.251 274.3C158.051 274.124 157.763 274.036 157.387 274.036H155.359V276.076H157.387ZM163.956 270.844C164.796 270.844 165.512 271.152 166.104 271.768C166.696 272.376 166.992 273.12 166.992 274C166.992 274.88 166.696 275.628 166.104 276.244C165.512 276.852 164.796 277.156 163.956 277.156C162.964 277.156 162.208 276.764 161.688 275.98V279.4H160.644V271H161.688V272.02C162.208 271.236 162.964 270.844 163.956 270.844ZM163.824 276.148C164.424 276.148 164.928 275.944 165.336 275.536C165.744 275.12 165.948 274.608 165.948 274C165.948 273.392 165.744 272.884 165.336 272.476C164.928 272.06 164.424 271.852 163.824 271.852C163.216 271.852 162.708 272.06 162.3 272.476C161.892 272.884 161.688 273.392 161.688 274C161.688 274.608 161.892 275.12 162.3 275.536C162.708 275.944 163.216 276.148 163.824 276.148ZM167.464 268.6H168.748V269.884C168.748 270.348 168.636 270.724 168.412 271.012C168.196 271.292 167.88 271.448 167.464 271.48V270.928C167.672 270.888 167.828 270.796 167.932 270.652C168.036 270.5 168.088 270.244 168.088 269.884H167.464V268.6ZM170.022 277V276.088L172.986 273.088C173.778 272.296 174.174 271.608 174.174 271.024C174.174 270.552 174.03 270.184 173.742 269.92C173.462 269.656 173.114 269.524 172.698 269.524C172.234 269.524 171.854 269.652 171.558 269.908C171.27 270.156 171.126 270.532 171.126 271.036H170.022C170.022 270.196 170.282 269.556 170.802 269.116C171.322 268.668 171.95 268.444 172.686 268.444C173.382 268.444 173.99 268.672 174.51 269.128C175.03 269.584 175.29 270.216 175.29 271.024C175.29 271.888 174.794 272.808 173.802 273.784L171.642 275.92H175.446V277H170.022ZM182.427 274.36V275.404H181.407V277H180.291V275.404H175.983V274.36L178.995 268.6H180.195L177.195 274.36H180.291V271.984H181.407V274.36H182.427Z" fill="#202224"/>
<path opacity="0.5" d="M238.76 268.6V277H237.656V270.436L235.316 275.584H234.356L232.016 270.436V277H230.9V268.6H232.016H232.232L234.836 274.312L237.428 268.6H238.76ZM242.692 270.844C243.38 270.844 243.94 271.048 244.372 271.456C244.812 271.864 245.032 272.42 245.032 273.124V277H244V276.376C243.608 276.896 243.012 277.156 242.212 277.156C241.628 277.156 241.132 276.988 240.724 276.652C240.316 276.316 240.112 275.844 240.112 275.236C240.112 274.628 240.316 274.156 240.724 273.82C241.132 273.484 241.628 273.316 242.212 273.316C242.988 273.316 243.584 273.548 244 274.012V273.16C244 272.712 243.876 272.38 243.628 272.164C243.388 271.948 243.076 271.84 242.692 271.84C242.324 271.84 242.016 271.936 241.768 272.128C241.52 272.312 241.396 272.576 241.396 272.92H240.364C240.364 272.304 240.584 271.804 241.024 271.42C241.464 271.036 242.02 270.844 242.692 270.844ZM242.512 276.268C242.952 276.268 243.308 276.172 243.58 275.98C243.86 275.788 244 275.54 244 275.236C244 274.916 243.86 274.664 243.58 274.48C243.308 274.288 242.952 274.192 242.512 274.192C242.064 274.192 241.724 274.288 241.492 274.48C241.268 274.672 241.156 274.924 241.156 275.236C241.156 275.548 241.268 275.8 241.492 275.992C241.724 276.176 242.064 276.268 242.512 276.268ZM249.784 270.844C250.624 270.844 251.34 271.152 251.932 271.768C252.524 272.376 252.82 273.12 252.82 274C252.82 274.88 252.524 275.628 251.932 276.244C251.34 276.852 250.624 277.156 249.784 277.156C248.792 277.156 248.036 276.764 247.516 275.98V279.4H246.472V271H247.516V272.02C248.036 271.236 248.792 270.844 249.784 270.844ZM249.652 276.148C250.252 276.148 250.756 275.944 251.164 275.536C251.572 275.12 251.776 274.608 251.776 274C251.776 273.392 251.572 272.884 251.164 272.476C250.756 272.06 250.252 271.852 249.652 271.852C249.044 271.852 248.536 272.06 248.128 272.476C247.72 272.884 247.516 273.392 247.516 274C247.516 274.608 247.72 275.12 248.128 275.536C248.536 275.944 249.044 276.148 249.652 276.148ZM257.815 271V271.996H256.015V277H254.971V271.996H253.159V271H256.015H257.815ZM258.754 268.6H260.038V269.884C260.038 270.348 259.926 270.724 259.701 271.012C259.486 271.292 259.17 271.448 258.754 271.48V270.928C258.962 270.888 259.118 270.796 259.222 270.652C259.326 270.5 259.378 270.244 259.378 269.884H258.754V268.6ZM261.311 277V276.088L264.275 273.088C265.067 272.296 265.463 271.608 265.463 271.024C265.463 270.552 265.319 270.184 265.031 269.92C264.751 269.656 264.403 269.524 263.987 269.524C263.523 269.524 263.143 269.652 262.847 269.908C262.559 270.156 262.415 270.532 262.415 271.036H261.311C261.311 270.196 261.571 269.556 262.091 269.116C262.611 268.668 263.239 268.444 263.975 268.444C264.671 268.444 265.279 268.672 265.799 269.128C266.319 269.584 266.579 270.216 266.579 271.024C266.579 271.888 266.083 272.808 265.091 273.784L262.931 275.92H266.735V277H261.311ZM273.716 274.36V275.404H272.696V277H271.58V275.404H267.272V274.36L270.284 268.6H271.484L268.484 274.36H271.58V271.984H272.696V274.36H273.716Z" fill="#202224"/>
<path opacity="0.5" d="M327.372 277L326.7 275.116H322.956L322.284 277H321.096L324.192 268.6H325.452L328.56 277H327.372ZM323.328 274.072H326.316L324.828 269.908L323.328 274.072ZM334.28 271V277H333.236V271.996H330.488V277H329.444V271H330.488H334.28ZM339.178 270.844C340.018 270.844 340.734 271.152 341.326 271.768C341.918 272.376 342.214 273.12 342.214 274C342.214 274.88 341.918 275.628 341.326 276.244C340.734 276.852 340.018 277.156 339.178 277.156C338.186 277.156 337.43 276.764 336.91 275.98V279.4H335.866V271H336.91V272.02C337.43 271.236 338.186 270.844 339.178 270.844ZM339.046 276.148C339.646 276.148 340.15 275.944 340.558 275.536C340.966 275.12 341.17 274.608 341.17 274C341.17 273.392 340.966 272.884 340.558 272.476C340.15 272.06 339.646 271.852 339.046 271.852C338.438 271.852 337.93 272.06 337.522 272.476C337.114 272.884 336.91 273.392 336.91 274C336.91 274.608 337.114 275.12 337.522 275.536C337.93 275.944 338.438 276.148 339.046 276.148ZM342.687 268.6H343.971V269.884C343.971 270.348 343.859 270.724 343.635 271.012C343.419 271.292 343.103 271.448 342.687 271.48V270.928C342.895 270.888 343.051 270.796 343.155 270.652C343.259 270.5 343.311 270.244 343.311 269.884H342.687V268.6ZM345.245 277V276.088L348.209 273.088C349.001 272.296 349.397 271.608 349.397 271.024C349.397 270.552 349.253 270.184 348.965 269.92C348.685 269.656 348.337 269.524 347.921 269.524C347.457 269.524 347.077 269.652 346.781 269.908C346.493 270.156 346.349 270.532 346.349 271.036H345.245C345.245 270.196 345.505 269.556 346.025 269.116C346.545 268.668 347.173 268.444 347.909 268.444C348.605 268.444 349.213 268.672 349.733 269.128C350.253 269.584 350.513 270.216 350.513 271.024C350.513 271.888 350.017 272.808 349.025 273.784L346.865 275.92H350.669V277H345.245ZM357.65 274.36V275.404H356.63V277H355.514V275.404H351.206V274.36L354.218 268.6H355.418L352.418 274.36H355.514V271.984H356.63V274.36H357.65Z" fill="#202224"/>
<path opacity="0.5" d="M413.76 268.6V277H412.656V270.436L410.316 275.584H409.356L407.016 270.436V277H405.9V268.6H407.016H407.232L409.836 274.312L412.428 268.6H413.76ZM417.692 270.844C418.38 270.844 418.94 271.048 419.372 271.456C419.812 271.864 420.032 272.42 420.032 273.124V277H419V276.376C418.608 276.896 418.012 277.156 417.212 277.156C416.628 277.156 416.132 276.988 415.724 276.652C415.316 276.316 415.112 275.844 415.112 275.236C415.112 274.628 415.316 274.156 415.724 273.82C416.132 273.484 416.628 273.316 417.212 273.316C417.988 273.316 418.584 273.548 419 274.012V273.16C419 272.712 418.876 272.38 418.628 272.164C418.388 271.948 418.076 271.84 417.692 271.84C417.324 271.84 417.016 271.936 416.768 272.128C416.52 272.312 416.396 272.576 416.396 272.92H415.364C415.364 272.304 415.584 271.804 416.024 271.42C416.464 271.036 417.02 270.844 417.692 270.844ZM417.512 276.268C417.952 276.268 418.308 276.172 418.58 275.98C418.86 275.788 419 275.54 419 275.236C419 274.916 418.86 274.664 418.58 274.48C418.308 274.288 417.952 274.192 417.512 274.192C417.064 274.192 416.724 274.288 416.492 274.48C416.268 274.672 416.156 274.924 416.156 275.236C416.156 275.548 416.268 275.8 416.492 275.992C416.724 276.176 417.064 276.268 417.512 276.268ZM422.276 270.1V269.188H425.516V270.1H422.276ZM425.468 271H426.308V277H425.276V272.8L422.312 277H421.472V271H422.504V275.2L425.468 271ZM427.918 268.6H429.202V269.884C429.202 270.348 429.09 270.724 428.866 271.012C428.65 271.292 428.334 271.448 427.918 271.48V270.928C428.126 270.888 428.282 270.796 428.386 270.652C428.49 270.5 428.542 270.244 428.542 269.884H427.918V268.6ZM430.476 277V276.088L433.44 273.088C434.232 272.296 434.628 271.608 434.628 271.024C434.628 270.552 434.484 270.184 434.196 269.92C433.916 269.656 433.568 269.524 433.152 269.524C432.688 269.524 432.308 269.652 432.012 269.908C431.724 270.156 431.58 270.532 431.58 271.036H430.476C430.476 270.196 430.736 269.556 431.256 269.116C431.776 268.668 432.404 268.444 433.14 268.444C433.836 268.444 434.444 268.672 434.964 269.128C435.484 269.584 435.744 270.216 435.744 271.024C435.744 271.888 435.248 272.808 434.256 273.784L432.096 275.92H435.9V277H430.476ZM442.88 274.36V275.404H441.86V277H440.744V275.404H436.436V274.36L439.448 268.6H440.648L437.648 274.36H440.744V271.984H441.86V274.36H442.88Z" fill="#202224"/>
<path opacity="0.5" d="M496.616 277V270.784L492.8 277H491.9V268.6H493.016V274.804L496.82 268.6H497.72V277H496.616ZM504.653 270.844C505.533 270.844 506.277 271.148 506.885 271.756C507.501 272.364 507.809 273.112 507.809 274C507.809 274.888 507.501 275.636 506.885 276.244C506.277 276.852 505.533 277.156 504.653 277.156C503.861 277.156 503.177 276.908 502.601 276.412C502.025 275.908 501.681 275.268 501.569 274.492H500.453V277H499.409V271H500.453V273.496H501.569C501.681 272.728 502.025 272.096 502.601 271.6C503.177 271.096 503.861 270.844 504.653 270.844ZM504.653 276.136C505.245 276.136 505.745 275.932 506.153 275.524C506.561 275.116 506.765 274.608 506.765 274C506.765 273.392 506.561 272.884 506.153 272.476C505.745 272.068 505.245 271.864 504.653 271.864C504.053 271.864 503.549 272.068 503.141 272.476C502.733 272.884 502.529 273.392 502.529 274C502.529 274.608 502.733 275.116 503.141 275.524C503.549 275.932 504.053 276.136 504.653 276.136ZM512.846 271H513.89V277H512.846V274.492H510.098V277H509.054V271H510.098V273.496H512.846V271ZM518.019 273.16C518.619 273.16 519.115 273.34 519.507 273.7C519.907 274.052 520.107 274.512 520.107 275.08C520.107 275.648 519.907 276.112 519.507 276.472C519.115 276.824 518.619 277 518.019 277H515.883H515.487V271H516.531V273.16H518.019ZM518.019 276.028C518.315 276.028 518.563 275.944 518.763 275.776C518.971 275.6 519.075 275.368 519.075 275.08C519.075 274.792 518.971 274.56 518.763 274.384C518.563 274.208 518.315 274.12 518.019 274.12H516.531V276.028H518.019ZM521.254 268.6H522.538V269.884C522.538 270.348 522.426 270.724 522.201 271.012C521.986 271.292 521.67 271.448 521.254 271.48V270.928C521.462 270.888 521.618 270.796 521.722 270.652C521.826 270.5 521.878 270.244 521.878 269.884H521.254V268.6ZM523.811 277V276.088L526.775 273.088C527.567 272.296 527.963 271.608 527.963 271.024C527.963 270.552 527.819 270.184 527.531 269.92C527.251 269.656 526.903 269.524 526.487 269.524C526.023 269.524 525.643 269.652 525.347 269.908C525.059 270.156 524.915 270.532 524.915 271.036H523.811C523.811 270.196 524.071 269.556 524.591 269.116C525.111 268.668 525.739 268.444 526.475 268.444C527.171 268.444 527.779 268.672 528.299 269.128C528.819 269.584 529.079 270.216 529.079 271.024C529.079 271.888 528.583 272.808 527.591 273.784L525.431 275.92H529.235V277H523.811ZM536.216 274.36V275.404H535.196V277H534.08V275.404H529.772V274.36L532.784 268.6H533.984L530.984 274.36H534.08V271.984H535.196V274.36H536.216Z" fill="#202224"/>
<path d="M589.616 277V270.784L585.8 277H584.9V268.6H586.016V274.804L589.82 268.6H590.72V277H589.616ZM597.653 270.844C598.533 270.844 599.277 271.148 599.885 271.756C600.501 272.364 600.809 273.112 600.809 274C600.809 274.888 600.501 275.636 599.885 276.244C599.277 276.852 598.533 277.156 597.653 277.156C596.861 277.156 596.177 276.908 595.601 276.412C595.025 275.908 594.681 275.268 594.569 274.492H593.453V277H592.409V271H593.453V273.496H594.569C594.681 272.728 595.025 272.096 595.601 271.6C596.177 271.096 596.861 270.844 597.653 270.844ZM597.653 276.136C598.245 276.136 598.745 275.932 599.153 275.524C599.561 275.116 599.765 274.608 599.765 274C599.765 273.392 599.561 272.884 599.153 272.476C598.745 272.068 598.245 271.864 597.653 271.864C597.053 271.864 596.549 272.068 596.141 272.476C595.733 272.884 595.529 273.392 595.529 274C595.529 274.608 595.733 275.116 596.141 275.524C596.549 275.932 597.053 276.136 597.653 276.136ZM606.559 271V277H605.515V272.008H603.427V274.456C603.427 275.432 603.227 276.116 602.827 276.508C602.435 276.9 601.879 277.072 601.159 277.024V276.04C601.567 276.088 601.871 275.992 602.071 275.752C602.279 275.512 602.383 275.072 602.383 274.432V271H603.427H606.559ZM610.679 273.16C611.279 273.16 611.775 273.34 612.167 273.7C612.567 274.052 612.767 274.512 612.767 275.08C612.767 275.648 612.567 276.112 612.167 276.472C611.775 276.824 611.279 277 610.679 277H608.543H608.147V271H609.191V273.16H610.679ZM610.679 276.028C610.975 276.028 611.223 275.944 611.423 275.776C611.631 275.6 611.735 275.368 611.735 275.08C611.735 274.792 611.631 274.56 611.423 274.384C611.223 274.208 610.975 274.12 610.679 274.12H609.191V276.028H610.679ZM613.914 268.6H615.198V269.884C615.198 270.348 615.086 270.724 614.862 271.012C614.646 271.292 614.33 271.448 613.914 271.48V270.928C614.122 270.888 614.278 270.796 614.382 270.652C614.486 270.5 614.538 270.244 614.538 269.884H613.914V268.6ZM616.472 277V276.088L619.436 273.088C620.228 272.296 620.624 271.608 620.624 271.024C620.624 270.552 620.48 270.184 620.192 269.92C619.912 269.656 619.564 269.524 619.148 269.524C618.684 269.524 618.304 269.652 618.008 269.908C617.72 270.156 617.576 270.532 617.576 271.036H616.472C616.472 270.196 616.732 269.556 617.252 269.116C617.772 268.668 618.4 268.444 619.136 268.444C619.832 268.444 620.44 268.672 620.96 269.128C621.48 269.584 621.74 270.216 621.74 271.024C621.74 271.888 621.244 272.808 620.252 273.784L618.092 275.92H621.896V277H616.472ZM628.877 274.36V275.404H627.857V277H626.741V275.404H622.433V274.36L625.445 268.6H626.645L623.645 274.36H626.741V271.984H627.857V274.36H628.877Z" fill="#4880FF"/>
<path opacity="0.5" d="M683.372 277L682.7 275.116H678.956L678.284 277H677.096L680.192 268.6H681.452L684.56 277H683.372ZM679.328 274.072H682.316L680.828 269.908L679.328 274.072ZM689.668 273.4C689.996 273.552 690.248 273.776 690.424 274.072C690.608 274.36 690.7 274.688 690.7 275.056C690.7 275.616 690.512 276.08 690.136 276.448C689.768 276.816 689.236 277 688.54 277H685.444V274.036V271H686.464H687.964C688.548 271 689.012 271.16 689.356 271.48C689.708 271.792 689.884 272.184 689.884 272.656C689.884 272.928 689.812 273.176 689.668 273.4ZM686.464 271.912V273.16H688.54C688.556 273.16 688.588 273.164 688.636 273.172C688.684 273.172 688.72 273.172 688.744 273.172C688.832 273.012 688.876 272.864 688.876 272.728C688.876 272.464 688.784 272.26 688.6 272.116C688.416 271.964 688.18 271.896 687.892 271.912H686.464ZM688.492 276.076C688.868 276.076 689.156 275.984 689.356 275.8C689.564 275.616 689.668 275.364 689.668 275.044C689.668 274.724 689.564 274.476 689.356 274.3C689.156 274.124 688.868 274.036 688.492 274.036H686.464V276.076H688.492ZM695.445 271V272.008H692.793V277H691.749V271H695.445ZM696.308 268.6H697.592V269.884C697.592 270.348 697.48 270.724 697.256 271.012C697.04 271.292 696.724 271.448 696.308 271.48V270.928C696.516 270.888 696.672 270.796 696.776 270.652C696.88 270.5 696.932 270.244 696.932 269.884H696.308V268.6ZM698.866 277V276.088L701.83 273.088C702.622 272.296 703.018 271.608 703.018 271.024C703.018 270.552 702.874 270.184 702.586 269.92C702.306 269.656 701.958 269.524 701.542 269.524C701.078 269.524 700.698 269.652 700.402 269.908C700.114 270.156 699.97 270.532 699.97 271.036H698.866C698.866 270.196 699.126 269.556 699.646 269.116C700.166 268.668 700.794 268.444 701.53 268.444C702.226 268.444 702.834 268.672 703.354 269.128C703.874 269.584 704.134 270.216 704.134 271.024C704.134 271.888 703.638 272.808 702.646 273.784L700.486 275.92H704.29V277H698.866ZM711.271 274.36V275.404H710.251V277H709.135V275.404H704.827V274.36L707.839 268.6H709.039L706.039 274.36H709.135V271.984H710.251V274.36H711.271Z" fill="#202224"/>
<path opacity="0.5" d="M763.848 277.156C762.576 277.156 761.524 276.736 760.692 275.896C759.868 275.056 759.456 274.024 759.456 272.8C759.456 271.576 759.868 270.544 760.692 269.704C761.524 268.864 762.576 268.444 763.848 268.444C764.792 268.444 765.632 268.716 766.368 269.26C767.112 269.804 767.6 270.504 767.832 271.36H766.644C766.444 270.816 766.088 270.376 765.576 270.04C765.064 269.696 764.488 269.524 763.848 269.524C762.88 269.524 762.088 269.836 761.472 270.46C760.864 271.084 760.56 271.864 760.56 272.8C760.56 273.728 760.864 274.504 761.472 275.128C762.088 275.752 762.88 276.064 763.848 276.064C764.488 276.064 765.064 275.896 765.576 275.56C766.088 275.224 766.444 274.784 766.644 274.24H767.832C767.6 275.096 767.112 275.796 766.368 276.34C765.632 276.884 764.792 277.156 763.848 277.156ZM769.594 274.48C769.682 275.024 769.91 275.448 770.278 275.752C770.654 276.056 771.114 276.208 771.658 276.208C772.026 276.208 772.354 276.128 772.642 275.968C772.938 275.8 773.15 275.588 773.278 275.332H774.37C774.194 275.884 773.862 276.328 773.374 276.664C772.886 276.992 772.31 277.156 771.646 277.156C770.718 277.156 769.966 276.86 769.39 276.268C768.814 275.668 768.526 274.912 768.526 274C768.526 273.096 768.814 272.344 769.39 271.744C769.966 271.144 770.714 270.844 771.634 270.844C772.514 270.844 773.222 271.156 773.758 271.78C774.302 272.396 774.574 273.14 774.574 274.012C774.574 274.164 774.562 274.32 774.538 274.48H769.594ZM769.594 273.556H773.506C773.434 272.996 773.222 272.568 772.87 272.272C772.518 271.976 772.102 271.828 771.622 271.828C771.07 271.828 770.614 271.984 770.254 272.296C769.902 272.608 769.682 273.028 769.594 273.556ZM779.51 271H780.554V277H779.51V274.492H776.762V277H775.718V271H776.762V273.496H779.51V271ZM786.135 271V271.996H784.335V277H783.291V271.996H781.479V271H784.335H786.135ZM787.074 268.6H788.358V269.884C788.358 270.348 788.246 270.724 788.022 271.012C787.806 271.292 787.49 271.448 787.074 271.48V270.928C787.282 270.888 787.438 270.796 787.542 270.652C787.646 270.5 787.698 270.244 787.698 269.884H787.074V268.6ZM789.632 277V276.088L792.596 273.088C793.388 272.296 793.784 271.608 793.784 271.024C793.784 270.552 793.64 270.184 793.352 269.92C793.072 269.656 792.724 269.524 792.308 269.524C791.844 269.524 791.464 269.652 791.168 269.908C790.88 270.156 790.736 270.532 790.736 271.036H789.632C789.632 270.196 789.892 269.556 790.412 269.116C790.932 268.668 791.56 268.444 792.296 268.444C792.992 268.444 793.6 268.672 794.12 269.128C794.64 269.584 794.9 270.216 794.9 271.024C794.9 271.888 794.404 272.808 793.412 273.784L791.252 275.92H795.056V277H789.632ZM802.037 274.36V275.404H801.017V277H799.901V275.404H795.593V274.36L798.605 268.6H799.805L796.805 274.36H799.901V271.984H801.017V274.36H802.037Z" fill="#202224"/>
<path opacity="0.5" d="M857.884 275.884C857.044 276.732 856.016 277.156 854.8 277.156C853.584 277.156 852.556 276.732 851.716 275.884C850.876 275.036 850.456 274.008 850.456 272.8C850.456 271.584 850.876 270.556 851.716 269.716C852.556 268.868 853.584 268.444 854.8 268.444C856.016 268.444 857.044 268.868 857.884 269.716C858.732 270.556 859.156 271.584 859.156 272.8C859.156 274.008 858.732 275.036 857.884 275.884ZM852.484 275.128C853.108 275.752 853.88 276.064 854.8 276.064C855.72 276.064 856.488 275.752 857.104 275.128C857.728 274.496 858.04 273.72 858.04 272.8C858.04 271.872 857.728 271.096 857.104 270.472C856.488 269.84 855.72 269.524 854.8 269.524C853.88 269.524 853.108 269.84 852.484 270.472C851.868 271.096 851.56 271.872 851.56 272.8C851.56 273.72 851.868 274.496 852.484 275.128ZM865.442 277H864.134L861.434 274.168V277H860.39V271H861.434V273.664L864.014 271H865.322L862.478 273.904L865.442 277ZM870.397 271V271.996H868.597V277H867.553V271.996H865.741V271H868.597H870.397ZM871.336 268.6H872.62V269.884C872.62 270.348 872.508 270.724 872.284 271.012C872.068 271.292 871.752 271.448 871.336 271.48V270.928C871.544 270.888 871.7 270.796 871.804 270.652C871.908 270.5 871.96 270.244 871.96 269.884H871.336V268.6ZM873.894 277V276.088L876.858 273.088C877.65 272.296 878.046 271.608 878.046 271.024C878.046 270.552 877.902 270.184 877.614 269.92C877.334 269.656 876.986 269.524 876.57 269.524C876.106 269.524 875.726 269.652 875.43 269.908C875.142 270.156 874.998 270.532 874.998 271.036H873.894C873.894 270.196 874.154 269.556 874.674 269.116C875.194 268.668 875.822 268.444 876.558 268.444C877.254 268.444 877.862 268.672 878.382 269.128C878.902 269.584 879.162 270.216 879.162 271.024C879.162 271.888 878.666 272.808 877.674 273.784L875.514 275.92H879.318V277H873.894ZM886.298 274.36V275.404H885.278V277H884.162V275.404H879.854V274.36L882.866 268.6H884.066L881.066 274.36H884.162V271.984H885.278V274.36H886.298Z" fill="#202224"/>
<path opacity="0.5" d="M939.58 268.6H940.696V277H939.58V273.208H936.016V277H934.9V268.6H936.016V272.152H939.58V268.6ZM947.45 276.244C946.834 276.852 946.086 277.156 945.206 277.156C944.326 277.156 943.578 276.852 942.962 276.244C942.354 275.636 942.05 274.888 942.05 274C942.05 273.112 942.354 272.364 942.962 271.756C943.578 271.148 944.326 270.844 945.206 270.844C946.086 270.844 946.834 271.148 947.45 271.756C948.066 272.364 948.374 273.112 948.374 274C948.374 274.888 948.066 275.636 947.45 276.244ZM945.206 276.136C945.806 276.136 946.31 275.932 946.718 275.524C947.126 275.116 947.33 274.608 947.33 274C947.33 273.392 947.126 272.884 946.718 272.476C946.31 272.068 945.806 271.864 945.206 271.864C944.614 271.864 944.114 272.068 943.706 272.476C943.298 272.884 943.094 273.392 943.094 274C943.094 274.608 943.298 275.116 943.706 275.524C944.114 275.932 944.614 276.136 945.206 276.136ZM953.858 271V277H952.826V274.84H951.89L950.03 277H948.758L950.714 274.768C950.274 274.656 949.918 274.436 949.646 274.108C949.374 273.772 949.238 273.38 949.238 272.932C949.238 272.38 949.434 271.92 949.826 271.552C950.218 271.184 950.71 271 951.302 271H953.858ZM951.338 273.904H952.826V271.972H951.338C951.042 271.972 950.79 272.06 950.582 272.236C950.374 272.412 950.27 272.648 950.27 272.944C950.27 273.232 950.374 273.464 950.582 273.64C950.79 273.816 951.042 273.904 951.338 273.904ZM958.152 277.156C957.272 277.156 956.544 276.868 955.968 276.292C955.392 275.708 955.104 274.956 955.104 274.036C955.104 273.356 955.244 272.752 955.524 272.224C955.812 271.688 956.156 271.26 956.556 270.94C956.964 270.62 957.368 270.336 957.768 270.088C958.168 269.832 958.508 269.584 958.788 269.344C959.076 269.096 959.22 268.848 959.22 268.6H960.312C960.312 268.968 960.212 269.292 960.012 269.572C959.812 269.852 959.552 270.088 959.232 270.28C958.92 270.472 958.592 270.66 958.248 270.844C957.912 271.028 957.576 271.252 957.24 271.516C956.904 271.78 956.648 272.076 956.472 272.404C956.984 271.86 957.604 271.588 958.332 271.588C959.092 271.588 959.748 271.848 960.3 272.368C960.852 272.888 961.128 273.544 961.128 274.336C961.128 275.152 960.848 275.828 960.288 276.364C959.728 276.892 959.016 277.156 958.152 277.156ZM956.736 275.62C957.12 275.972 957.592 276.148 958.152 276.148C958.712 276.148 959.172 275.976 959.532 275.632C959.9 275.288 960.084 274.856 960.084 274.336C960.084 273.808 959.896 273.372 959.52 273.028C959.144 272.684 958.668 272.512 958.092 272.512C957.588 272.512 957.14 272.672 956.748 272.992C956.364 273.312 956.172 273.74 956.172 274.276C956.172 274.82 956.36 275.268 956.736 275.62ZM961.464 268.6H962.748V269.884C962.748 270.348 962.636 270.724 962.412 271.012C962.196 271.292 961.88 271.448 961.464 271.48V270.928C961.672 270.888 961.828 270.796 961.932 270.652C962.036 270.5 962.088 270.244 962.088 269.884H961.464V268.6ZM964.022 277V276.088L966.986 273.088C967.778 272.296 968.174 271.608 968.174 271.024C968.174 270.552 968.03 270.184 967.742 269.92C967.462 269.656 967.114 269.524 966.698 269.524C966.234 269.524 965.854 269.652 965.558 269.908C965.27 270.156 965.126 270.532 965.126 271.036H964.022C964.022 270.196 964.282 269.556 964.802 269.116C965.322 268.668 965.95 268.444 966.686 268.444C967.382 268.444 967.99 268.672 968.51 269.128C969.03 269.584 969.29 270.216 969.29 271.024C969.29 271.888 968.794 272.808 967.802 273.784L965.642 275.92H969.446V277H964.022ZM976.427 274.36V275.404H975.407V277H974.291V275.404H969.983V274.36L972.995 268.6H974.195L971.195 274.36H974.291V271.984H975.407V274.36H976.427Z" fill="#202224"/>
<path opacity="0.5" d="M1030.72 275.956H1031.62V277V278.728H1030.52V277H1025.3V278.728H1024.18V276.568V275.956H1024.9C1025.43 275.316 1025.69 274.328 1025.69 272.992V268.6H1030.72V275.956ZM1026.16 275.956H1029.62V269.644H1026.81V273.016C1026.81 274.28 1026.59 275.26 1026.16 275.956ZM1033.32 274.48C1033.4 275.024 1033.63 275.448 1034 275.752C1034.38 276.056 1034.84 276.208 1035.38 276.208C1035.75 276.208 1036.08 276.128 1036.36 275.968C1036.66 275.8 1036.87 275.588 1037 275.332H1038.09C1037.92 275.884 1037.58 276.328 1037.1 276.664C1036.61 276.992 1036.03 277.156 1035.37 277.156C1034.44 277.156 1033.69 276.86 1033.11 276.268C1032.54 275.668 1032.25 274.912 1032.25 274C1032.25 273.096 1032.54 272.344 1033.11 271.744C1033.69 271.144 1034.44 270.844 1035.36 270.844C1036.24 270.844 1036.94 271.156 1037.48 271.78C1038.02 272.396 1038.3 273.14 1038.3 274.012C1038.3 274.164 1038.28 274.32 1038.26 274.48H1033.32ZM1033.32 273.556H1037.23C1037.16 272.996 1036.94 272.568 1036.59 272.272C1036.24 271.976 1035.82 271.828 1035.34 271.828C1034.79 271.828 1034.34 271.984 1033.98 272.296C1033.62 272.608 1033.4 273.028 1033.32 273.556ZM1044.49 277H1043.18L1040.48 274.168V277H1039.44V271H1040.48V273.664L1043.06 271H1044.37L1041.53 273.904L1044.49 277ZM1045.49 268.6H1046.77V269.884C1046.77 270.348 1046.66 270.724 1046.44 271.012C1046.22 271.292 1045.9 271.448 1045.49 271.48V270.928C1045.7 270.888 1045.85 270.796 1045.96 270.652C1046.06 270.5 1046.11 270.244 1046.11 269.884H1045.49V268.6ZM1048.05 277V276.088L1051.01 273.088C1051.8 272.296 1052.2 271.608 1052.2 271.024C1052.2 270.552 1052.05 270.184 1051.77 269.92C1051.49 269.656 1051.14 269.524 1050.72 269.524C1050.26 269.524 1049.88 269.652 1049.58 269.908C1049.29 270.156 1049.15 270.532 1049.15 271.036H1048.05C1048.05 270.196 1048.31 269.556 1048.83 269.116C1049.35 268.668 1049.97 268.444 1050.71 268.444C1051.41 268.444 1052.01 268.672 1052.53 269.128C1053.05 269.584 1053.31 270.216 1053.31 271.024C1053.31 271.888 1052.82 272.808 1051.83 273.784L1049.67 275.92H1053.47V277H1048.05ZM1060.45 274.36V275.404H1059.43V277H1058.31V275.404H1054.01V274.36L1057.02 268.6H1058.22L1055.22 274.36H1058.31V271.984H1059.43V274.36H1060.45Z" fill="#202224"/>
<line x1="49.5" y1="239.5" x2="1061.5" y2="239.5" stroke="#EAEEF5" stroke-linecap="round" stroke-dasharray="4 4"/>
<line x1="49.5" y1="192.5" x2="1061.5" y2="192.5" stroke="#EAEEF5" stroke-linecap="round" stroke-dasharray="4 4"/>
<line x1="49.5" y1="145.5" x2="1061.5" y2="145.5" stroke="#EAEEF5" stroke-linecap="round" stroke-dasharray="4 4"/>
<line x1="49.5" y1="51.5" x2="1061.5" y2="51.5" stroke="#EAEEF5" stroke-linecap="round" stroke-dasharray="4 4"/>
<line x1="49.5" y1="4.5" x2="1061.5" y2="4.5" stroke="#EAEEF5" stroke-linecap="round" stroke-dasharray="4 4"/>
<line x1="49.5" y1="98.5" x2="1061.5" y2="98.5" stroke="#EAEEF5" stroke-linecap="round" stroke-dasharray="4 4"/>
<mask id="mask0_68_432" style="mask-type:alpha" maskUnits="userSpaceOnUse" x="49" y="2" width="1013" height="244">
<rect x="49" y="2" width="1013" height="244" fill="#D9D9D9"/>
</mask>
<g mask="url(#mask0_68_432)">
<path d="M1072.63 3.5L871.055 205.078C869.531 206.602 867.073 206.644 865.497 205.173L694.727 45.7334C694.249 45.288 693.671 44.9661 693.04 44.7958L606.065 21.2879C605.368 21.0995 604.633 21.1032 603.938 21.2988L520.33 44.8215C519.783 44.9755 519.275 45.2444 518.84 45.6102L425.374 124.186C425.126 124.394 424.904 124.633 424.713 124.895L342.198 238.353C341.445 239.388 340.243 240 338.963 240H47C44.7909 240 43 238.209 43 236V137" stroke="#4880FF" stroke-width="3"/>
<path d="M1077 64L780.699 25.1213C780.091 25.0415 779.473 25.1026 778.892 25.2998L427.669 144.594C426.068 145.137 424.299 144.616 423.248 143.292L344.257 43.7146C343.204 42.3872 341.429 41.8672 339.826 42.4166L166.698 101.761C166.237 101.919 165.808 102.16 165.433 102.473L49.6129 199.072C48.8938 199.672 47.9737 200 47.0373 200V200C44.8282 200 43 198.209 43 196V137" stroke="#0ACF83" stroke-width="3"/>
<path d="M44.5987 210.524L164.141 147.973C165.305 147.364 166.694 147.365 167.857 147.977L251.626 192.04C252.2 192.342 252.839 192.5 253.488 192.5H515.5M1072 223.5H953.5" stroke="#F63F3F" stroke-width="3"/>
<path d="M521 193L951 223.5" stroke="#F63F3F" stroke-opacity="0.5" stroke-linecap="round" stroke-dasharray="1 6"/>
<circle cx="516.5" cy="192.5" r="4.5" fill="#F63F3F"/>
<circle cx="518.82" cy="45.7562" r="4.5" fill="#4880FF"/>
<circle cx="693.788" cy="45.2534" r="4.5" fill="#4880FF"/>
<circle cx="868.149" cy="205.865" r="4.5" fill="#4880FF"/>
<circle cx="424.5" cy="125.22" r="4.5" fill="#4880FF"/>
<circle cx="339.5" cy="240" r="4.5" fill="#4880FF"/>
<circle cx="955.5" cy="223.5" r="4.5" fill="#F63F3F"/>
<circle cx="955.5" cy="48.5" r="4.5" fill="#0ACF83"/>
<circle cx="780" cy="24.5" r="4.5" fill="#0ACF83"/>
<circle cx="342.5" cy="41.5" r="4.5" fill="#0ACF83"/>
<circle cx="166.5" cy="101.5" r="4.5" fill="#0ACF83"/>
<circle cx="166.5" cy="147.5" r="4.5" fill="#F63F3F"/>
<circle cx="68" cy="183" r="4.5" fill="#0ACF83"/>
<circle cx="68" cy="198.319" r="4.5" fill="#F63F3F"/>
<circle cx="252" cy="191.618" r="4.5" fill="#F63F3F"/>
<circle cx="425.286" cy="144.823" r="4.5" fill="#0ACF83"/>
<circle cx="514" cy="115.859" r="4.5" fill="#0ACF83"/>
<circle cx="605" cy="84.964" r="4.5" fill="#0ACF83"/>
<circle cx="693.838" cy="53.7654" r="4.5" fill="#0ACF83"/>
</g>
<path d="M605 240L605 29" stroke="#4880FF" stroke-dasharray="4 4"/>
<g filter="url(#filter0_d_68_432)">
<circle cx="604.5" cy="21.5" r="7.5" fill="#4880FF"/>
<circle cx="604.5" cy="21.5" r="6" stroke="white" stroke-width="3"/>
</g>
<path d="M626.854 22.92V24.138H625.664V26H624.362V24.138H619.336V22.92L622.85 16.2H624.25L620.75 22.92H624.362V20.148H625.664V22.92H626.854ZM630.959 20.022C631.892 20.022 632.676 20.2973 633.311 20.848C633.955 21.3893 634.277 22.1407 634.277 23.102C634.277 24.054 633.95 24.8053 633.297 25.356C632.643 25.9067 631.85 26.182 630.917 26.182C629.983 26.182 629.19 25.9067 628.537 25.356C627.883 24.8053 627.557 24.054 627.557 23.102H628.859C628.859 23.6713 629.05 24.1147 629.433 24.432C629.815 24.7493 630.31 24.908 630.917 24.908C631.533 24.908 632.032 24.7493 632.415 24.432C632.797 24.1147 632.989 23.6713 632.989 23.102C632.989 22.5327 632.797 22.0893 632.415 21.772C632.032 21.4453 631.533 21.282 630.917 21.282H628.033L628.397 16.2H633.899V17.418H629.601L629.419 20.022H630.959ZM641.85 24.796C641.188 25.72 640.259 26.182 639.064 26.182C637.87 26.182 636.941 25.72 636.278 24.796C635.616 23.872 635.284 22.64 635.284 21.1C635.284 19.56 635.616 18.328 636.278 17.404C636.941 16.48 637.87 16.018 639.064 16.018C640.259 16.018 641.188 16.48 641.85 17.404C642.513 18.328 642.844 19.56 642.844 21.1C642.844 22.64 642.513 23.872 641.85 24.796ZM637.23 23.914C637.66 24.5767 638.271 24.908 639.064 24.908C639.858 24.908 640.469 24.5767 640.898 23.914C641.337 23.2513 641.556 22.3133 641.556 21.1C641.556 19.8867 641.337 18.9487 640.898 18.286C640.469 17.614 639.858 17.278 639.064 17.278C638.271 17.278 637.66 17.6093 637.23 18.272C636.801 18.9347 636.586 19.8773 636.586 21.1C636.586 22.3133 636.801 23.2513 637.23 23.914ZM654.169 24.796C653.506 25.72 652.577 26.182 651.383 26.182C650.188 26.182 649.259 25.72 648.597 24.796C647.934 23.872 647.603 22.64 647.603 21.1C647.603 19.56 647.934 18.328 648.597 17.404C649.259 16.48 650.188 16.018 651.383 16.018C652.577 16.018 653.506 16.48 654.169 17.404C654.831 18.328 655.163 19.56 655.163 21.1C655.163 22.64 654.831 23.872 654.169 24.796ZM649.549 23.914C649.978 24.5767 650.589 24.908 651.383 24.908C652.176 24.908 652.787 24.5767 653.217 23.914C653.655 23.2513 653.875 22.3133 653.875 21.1C653.875 19.8867 653.655 18.9487 653.217 18.286C652.787 17.614 652.176 17.278 651.383 17.278C650.589 17.278 649.978 17.6093 649.549 18.272C649.119 18.9347 648.905 19.8773 648.905 21.1C648.905 22.3133 649.119 23.2513 649.549 23.914ZM662.987 24.796C662.324 25.72 661.396 26.182 660.201 26.182C659.006 26.182 658.078 25.72 657.415 24.796C656.752 23.872 656.421 22.64 656.421 21.1C656.421 19.56 656.752 18.328 657.415 17.404C658.078 16.48 659.006 16.018 660.201 16.018C661.396 16.018 662.324 16.48 662.987 17.404C663.65 18.328 663.981 19.56 663.981 21.1C663.981 22.64 663.65 23.872 662.987 24.796ZM658.367 23.914C658.796 24.5767 659.408 24.908 660.201 24.908C660.994 24.908 661.606 24.5767 662.035 23.914C662.474 23.2513 662.693 22.3133 662.693 21.1C662.693 19.8867 662.474 18.9487 662.035 18.286C661.606 17.614 660.994 17.278 660.201 17.278C659.408 17.278 658.796 17.6093 658.367 18.272C657.938 18.9347 657.723 19.8773 657.723 21.1C657.723 22.3133 657.938 23.2513 658.367 23.914ZM671.805 24.796C671.143 25.72 670.214 26.182 669.019 26.182C667.825 26.182 666.896 25.72 666.233 24.796C665.571 23.872 665.239 22.64 665.239 21.1C665.239 19.56 665.571 18.328 666.233 17.404C666.896 16.48 667.825 16.018 669.019 16.018C670.214 16.018 671.143 16.48 671.805 17.404C672.468 18.328 672.799 19.56 672.799 21.1C672.799 22.64 672.468 23.872 671.805 24.796ZM667.185 23.914C667.615 24.5767 668.226 24.908 669.019 24.908C669.813 24.908 670.424 24.5767 670.853 23.914C671.292 23.2513 671.511 22.3133 671.511 21.1C671.511 19.8867 671.292 18.9487 670.853 18.286C670.424 17.614 669.813 17.278 669.019 17.278C668.226 17.278 667.615 17.6093 667.185 18.272C666.756 18.9347 666.541 19.8773 666.541 21.1C666.541 22.3133 666.756 23.2513 667.185 23.914ZM681.912 22.248H679.658V23.382H683.13V24.334H679.658V26H678.37V24.334H677.18V23.382H678.37V22.248H677.18V21.072H678.37V16.2H679.658H681.912C682.761 16.2 683.484 16.4987 684.082 17.096C684.679 17.684 684.978 18.398 684.978 19.238C684.978 20.078 684.679 20.792 684.082 21.38C683.494 21.9587 682.77 22.248 681.912 22.248ZM679.658 17.418V21.072H681.912C682.397 21.072 682.812 20.8947 683.158 20.54C683.512 20.176 683.69 19.742 683.69 19.238C683.69 18.734 683.517 18.3047 683.172 17.95C682.826 17.5953 682.406 17.418 681.912 17.418H679.658Z" fill="#202224"/>
<defs>
<filter id="filter0_d_68_432" x="593" y="11" width="23" height="23" filterUnits="userSpaceOnUse" color-interpolation-filters="sRGB">
<feFlood flood-opacity="0" result="BackgroundImageFix"/>
<feColorMatrix in="SourceAlpha" type="matrix" values="0 0 0 0 0 0 0 0 0 0 0 0 0 0 0 0 0 0 127 0" result="hardAlpha"/>
<feOffset dy="1"/>
<feGaussianBlur stdDeviation="2"/>
<feComposite in2="hardAlpha" operator="out"/>
<feColorMatrix type="matrix" values="0 0 0 0 0.282353 0 0 0 0 0.501961 0 0 0 0 1 0 0 0 1 0"/>
<feBlend mode="normal" in2="BackgroundImageFix" result="effect1_dropShadow_68_432"/>
<feBlend mode="normal" in="SourceGraphic" in2="effect1_dropShadow_68_432" result="shape"/>
</filter>
</defs>
</svg>
