<svg xmlns="http://www.w3.org/2000/svg" viewBox="0 0 24 24">
	<path d="M12.5,21.5h-0.9c-3.7,0-5.7,0-7.1-1.4C3,18.7,3,16.7,3,13.1V7.5c0-0.6,0.4-1,1-1s1,0.4,1,1v5.6c0,3.4,0,4.9,0.8,5.6c0.8,0.8,2.5,0.8,5.7,0.8h0.9c3.3,0,4.9,0,5.7-0.8c0.8-0.8,0.8-2.2,0.8-5.6V7.5c0-0.6,0.4-1,1-1s1,0.4,1,1v5.6c0,3.7,0,5.7-1.4,7.1C18.2,21.5,16.2,21.5,12.5,21.5z"/>
	<path d="M20,8.5H4c-1.1,0-1.8,0-2.4-0.6S1,6.6,1,5.5s0-1.8,0.6-2.4S2.9,2.5,4,2.5h16c1.1,0,1.8,0,2.4,0.6S23,4.4,23,5.5s0,1.8-0.6,2.4S21.1,8.5,20,8.5z M3,6.5c0.2,0,0.6,0,1,0h16c0.4,0,0.8,0,1,0c0-0.2,0-0.6,0-1s0-0.8,0-1c-0.2,0-0.6,0-1,0H4c-0.4,0-0.8,0-1,0c0,0.2,0,0.6,0,1S3,6.3,3,6.5z"/>
	<path d="M15,16.5H9c-1.1,0-2-0.9-2-2v-2c0-1.1,0.9-2,2-2h6c1.1,0,2,0.9,2,2v2C17,15.6,16.1,16.5,15,16.5z M9,12.5L9,12.5v2h6v-2H9z"/>
</svg>
