<svg width="18" height="18" viewBox="0 0 18 18" xmlns="http://www.w3.org/2000/svg">
<path d="M8.96211 0.000475935C7.59149 -0.00201873 6.23863 0.312353 5.00795 0.919326C3.77728 1.5263 2.70169 2.40964 1.86421 3.50117C1.02673 4.5927 0.449762 5.86323 0.177833 7.21469C-0.094096 8.56614 -0.0537116 9.96239 0.295869 11.2957C0.64545 12.6289 1.29488 13.8635 2.19403 14.9042C3.09318 15.9449 4.218 16.7639 5.48168 17.2978C6.74536 17.8318 8.1141 18.0665 9.48225 17.9838C10.8504 17.9011 12.1814 17.5033 13.3724 16.821H13.4351H13.4798C15.2021 15.8347 16.5501 14.3009 17.3122 12.4604C18.0743 10.6199 18.2072 8.57698 17.6903 6.65223C17.1733 4.72749 16.0357 3.02992 14.456 1.826C12.8762 0.622084 10.9438 -0.0200215 8.96211 0.000475935ZM9.8567 1.86343C11.4312 2.0643 12.8947 2.78599 14.0169 3.915C15.1392 5.04401 15.8566 6.51629 16.0562 8.10027H9.8567V1.86343ZM8.96211 16.2001C7.15011 16.1876 5.41027 15.4842 4.09368 14.2317C2.77709 12.9792 1.98179 11.2709 1.86826 9.45149C1.75473 7.63213 2.33144 5.83718 3.482 4.42887C4.63255 3.02055 6.27129 2.10373 8.06751 1.86343V9.00025C8.07104 9.10799 8.0922 9.21441 8.13013 9.31524V9.38723V9.45023L11.7085 15.6331C10.8405 16.0068 9.90625 16.1997 8.96211 16.2001ZM13.283 14.7241L10.5097 9.90022H16.0562C15.9358 10.8493 15.6285 11.7648 15.1523 12.593C14.6762 13.4213 14.0407 14.1458 13.283 14.7241Z"/>
</svg>
