<svg width="18" height="18" viewBox="0 0 18 18" xmlns="http://www.w3.org/2000/svg">
<path d="M17.1 16.2H16.2V2.7C16.2 2.46131 16.1052 2.23239 15.9364 2.0636C15.7676 1.89482 15.5387 1.8 15.3 1.8C15.0613 1.8 14.8324 1.89482 14.6636 2.0636C14.4948 2.23239 14.4 2.46131 14.4 2.7V16.2H12.6V6.3C12.6 6.06131 12.5052 5.83239 12.3364 5.6636C12.1676 5.49482 11.9387 5.4 11.7 5.4C11.4613 5.4 11.2324 5.49482 11.0636 5.6636C10.8948 5.83239 10.8 6.06131 10.8 6.3V16.2H9V9.9C9 9.6613 8.90518 9.43239 8.7364 9.2636C8.56761 9.09482 8.33869 9 8.1 9C7.8613 9 7.63239 9.09482 7.4636 9.2636C7.29482 9.43239 7.2 9.6613 7.2 9.9V16.2H5.4V13.5C5.4 13.2613 5.30518 13.0324 5.1364 12.8636C4.96761 12.6948 4.73869 12.6 4.5 12.6C4.2613 12.6 4.03239 12.6948 3.8636 12.8636C3.69482 13.0324 3.6 13.2613 3.6 13.5V16.2H1.8V0.9C1.8 0.661305 1.70518 0.432387 1.5364 0.263604C1.36761 0.0948211 1.13869 0 0.9 0C0.661305 0 0.432387 0.0948211 0.263604 0.263604C0.0948211 0.432387 0 0.661305 0 0.9V17.1C0 17.3387 0.0948211 17.5676 0.263604 17.7364C0.432387 17.9052 0.661305 18 0.9 18H17.1C17.3387 18 17.5676 17.9052 17.7364 17.7364C17.9052 17.5676 18 17.3387 18 17.1C18 16.8613 17.9052 16.6324 17.7364 16.4636C17.5676 16.2948 17.3387 16.2 17.1 16.2Z"/>
</svg>
