<svg width="18" height="18" viewBox="0 0 18 18" xmlns="http://www.w3.org/2000/svg">
<path d="M4.95 12.6C5.30804 12.6 5.65142 12.4578 5.90459 12.2046C6.15777 11.9514 6.3 11.608 6.3 11.25C6.30439 11.2051 6.30439 11.1599 6.3 11.115L8.811 8.604H9.018H9.225L10.674 10.053C10.674 10.053 10.674 10.098 10.674 10.125C10.674 10.483 10.8162 10.8264 11.0694 11.0796C11.3226 11.3328 11.666 11.475 12.024 11.475C12.382 11.475 12.7254 11.3328 12.9786 11.0796C13.2318 10.8264 13.374 10.483 13.374 10.125V10.053L16.65 6.75C16.917 6.75 17.178 6.67082 17.4 6.52248C17.622 6.37414 17.7951 6.1633 17.8972 5.91662C17.9994 5.66994 18.0261 5.3985 17.9741 5.13663C17.922 4.87475 17.7934 4.63421 17.6046 4.44541C17.4158 4.2566 17.1752 4.12803 16.9134 4.07594C16.6515 4.02385 16.3801 4.05058 16.1334 4.15276C15.8867 4.25494 15.6759 4.42797 15.5275 4.64998C15.3792 4.87199 15.3 5.133 15.3 5.4C15.2956 5.44489 15.2956 5.49011 15.3 5.535L12.051 8.784H11.907L10.35 7.2C10.35 6.84196 10.2078 6.49858 9.95459 6.24541C9.70142 5.99223 9.35804 5.85 9 5.85C8.64196 5.85 8.29858 5.99223 8.04541 6.24541C7.79223 6.49858 7.65 6.84196 7.65 7.2L4.95 9.9C4.59196 9.9 4.24858 10.0422 3.99541 10.2954C3.74223 10.5486 3.6 10.892 3.6 11.25C3.6 11.608 3.74223 11.9514 3.99541 12.2046C4.24858 12.4578 4.59196 12.6 4.95 12.6ZM17.1 16.2H1.8V0.9C1.8 0.661305 1.70518 0.432387 1.5364 0.263604C1.36761 0.0948211 1.13869 0 0.9 0C0.661305 0 0.432387 0.0948211 0.263604 0.263604C0.0948211 0.432387 0 0.661305 0 0.9V17.1C0 17.3387 0.0948211 17.5676 0.263604 17.7364C0.432387 17.9052 0.661305 18 0.9 18H17.1C17.3387 18 17.5676 17.9052 17.7364 17.7364C17.9052 17.5676 18 17.3387 18 17.1C18 16.8613 17.9052 16.6324 17.7364 16.4636C17.5676 16.2948 17.3387 16.2 17.1 16.2Z"/>
</svg>
