<svg width="24" height="24" viewBox="0 0 24 24" fill="none" xmlns="http://www.w3.org/2000/svg">
<path d="M7.99994 11H15.9999C16.1477 10.999 16.2933 10.9654 16.4264 10.9014C16.5596 10.8374 16.6769 10.7447 16.7699 10.63C16.8677 10.5176 16.9391 10.3847 16.9789 10.2411C17.0187 10.0974 17.0259 9.94676 16.9999 9.80002L15.9999 4.80002C15.9532 4.57074 15.8275 4.36512 15.6448 4.21895C15.4621 4.07277 15.2339 3.9953 14.9999 4.00002H8.99994C8.766 3.9953 8.53781 4.07277 8.35509 4.21895C8.17237 4.36512 8.0467 4.57074 7.99994 4.80002L6.99994 9.80002C6.97132 9.94529 6.97531 10.0951 7.01163 10.2386C7.04794 10.3822 7.11568 10.5158 7.20994 10.63C7.30512 10.7474 7.42564 10.8416 7.56247 10.9057C7.6993 10.9698 7.84887 11.002 7.99994 11ZM9.81994 6.00002H14.1799L14.7799 9.00002H9.21994L9.81994 6.00002ZM21.9999 13.8C21.9532 13.5707 21.8275 13.3651 21.6448 13.2189C21.4621 13.0728 21.2339 12.9953 20.9999 13H14.9999C14.766 12.9953 14.5378 13.0728 14.3551 13.2189C14.1724 13.3651 14.0467 13.5707 13.9999 13.8L12.9999 18.8C12.9713 18.9453 12.9753 19.0951 13.0116 19.2386C13.0479 19.3822 13.1157 19.5158 13.2099 19.63C13.3051 19.7474 13.4256 19.8416 13.5625 19.9057C13.6993 19.9698 13.8489 20.002 13.9999 20H21.9999C22.1477 19.999 22.2933 19.9654 22.4264 19.9014C22.5596 19.8374 22.6769 19.7447 22.7699 19.63C22.8677 19.5175 22.9391 19.3847 22.9789 19.241C23.0187 19.0974 23.0259 18.9468 22.9999 18.8L21.9999 13.8ZM15.2199 18L15.8199 15H20.1799L20.7799 18H15.2199ZM8.99994 13H2.99994C2.766 12.9953 2.53781 13.0728 2.35509 13.2189C2.17237 13.3651 2.0467 13.5707 1.99994 13.8L0.999945 18.8C0.971321 18.9453 0.975311 19.0951 1.01163 19.2386C1.04794 19.3822 1.11568 19.5158 1.20994 19.63C1.30512 19.7474 1.42565 19.8416 1.56247 19.9057C1.6993 19.9698 1.84887 20.002 1.99994 20H9.99994C10.1477 19.999 10.2933 19.9654 10.4264 19.9014C10.5596 19.8374 10.6769 19.7447 10.7699 19.63C10.8677 19.5175 10.9391 19.3847 10.9789 19.241C11.0187 19.0974 11.0259 18.9468 10.9999 18.8L9.99994 13.8C9.95319 13.5707 9.82752 13.3651 9.6448 13.2189C9.46208 13.0728 9.23389 12.9953 8.99994 13ZM3.21994 18L3.81994 15H8.17994L8.77994 18H3.21994Z"/>
</svg>
