<svg width="417" height="26" viewBox="0 0 417 26" fill="none" xmlns="http://www.w3.org/2000/svg">
    <rect opacity="0.66" y="12" width="2" height="2" rx="1" fill="#A2B1CF" />
    <rect opacity="0.66" x="5" y="9" width="2" height="8" rx="1" fill="#A2B1CF" />
    <rect opacity="0.66" x="10" y="6" width="2" height="14" rx="1" fill="#A2B1CF" />
    <rect opacity="0.66" x="15" y="11" width="2" height="4" rx="1" fill="#A2B1CF" />
    <rect opacity="0.66" x="20" y="5" width="2" height="16" rx="1" fill="#A2B1CF" />
    <rect opacity="0.66" x="25" y="6" width="2" height="14" rx="1" fill="#A2B1CF" />
    <rect opacity="0.66" x="30" y="8" width="2" height="10" rx="1" fill="#A2B1CF" />
    <rect opacity="0.66" x="35" y="8" width="2" height="10" rx="1" fill="#A2B1CF" />
    <rect opacity="0.66" x="40" y="8" width="2" height="10" rx="1" fill="#A2B1CF" />
    <rect opacity="0.66" x="45" y="6" width="2" height="14" rx="1" fill="#A2B1CF" />
    <rect opacity="0.66" x="50" y="8" width="2" height="10" rx="1" fill="#A2B1CF" />
    <rect opacity="0.66" x="55" y="5" width="2" height="16" rx="1" fill="#A2B1CF" />
    <rect opacity="0.66" x="60" y="8" width="2" height="10" rx="1" fill="#A2B1CF" />
    <rect opacity="0.66" x="65" y="11" width="2" height="4" rx="1" fill="#A2B1CF" />
    <rect opacity="0.66" x="70" y="12" width="2" height="2" rx="1" fill="#A2B1CF" />
    <rect opacity="0.66" x="75" y="12" width="2" height="2" rx="1" fill="#A2B1CF" />
    <rect opacity="0.66" x="80" y="9" width="2" height="8" rx="1" fill="#A2B1CF" />
    <rect opacity="0.66" x="85" y="6" width="2" height="14" rx="1" fill="#A2B1CF" />
    <rect opacity="0.66" x="90" y="11" width="2" height="4" rx="1" fill="#A2B1CF" />
    <rect opacity="0.66" x="95" y="5" width="2" height="16" rx="1" fill="#A2B1CF" />
    <rect opacity="0.66" x="100" y="6" width="2" height="14" rx="1" fill="#A2B1CF" />
    <rect opacity="0.66" x="105" y="8" width="2" height="10" rx="1" fill="#A2B1CF" />
    <rect opacity="0.66" x="110" y="8" width="2" height="10" rx="1" fill="#A2B1CF" />
    <rect opacity="0.66" x="115" y="8" width="2" height="10" rx="1" fill="#A2B1CF" />
    <rect opacity="0.66" x="120" y="6" width="2" height="14" rx="1" fill="#A2B1CF" />
    <rect opacity="0.66" x="125" y="8" width="2" height="10" rx="1" fill="#A2B1CF" />
    <rect opacity="0.66" x="130" y="5" width="2" height="16" rx="1" fill="#A2B1CF" />
    <rect opacity="0.66" x="135" y="8" width="2" height="10" rx="1" fill="#A2B1CF" />
    <rect opacity="0.66" x="140" y="11" width="2" height="4" rx="1" fill="#A2B1CF" />
    <rect opacity="0.66" x="145" y="12" width="2" height="2" rx="1" fill="#A2B1CF" />
    <rect opacity="0.66" width="2" height="2" rx="1" transform="matrix(-1 0 0 1 152 12)" fill="#A2B1CF" />
    <rect opacity="0.66" width="2" height="8" rx="1" transform="matrix(-1 0 0 1 157 9)" fill="#A2B1CF" />
    <rect opacity="0.66" width="2" height="4" rx="1" transform="matrix(-1 0 0 1 162 11)" fill="#A2B1CF" />
    <rect opacity="0.66" width="2" height="10" rx="1" transform="matrix(-1 0 0 1 167 8)" fill="#A2B1CF" />
    <rect opacity="0.66" width="2" height="10" rx="1" transform="matrix(-1 0 0 1 172 8)" fill="#A2B1CF" />
    <rect opacity="0.66" width="2" height="10" rx="1" transform="matrix(-1 0 0 1 177 8)" fill="#A2B1CF" />
    <rect opacity="0.66" width="2" height="10" rx="1" transform="matrix(-1 0 0 1 182 8)" fill="#A2B1CF" />
    <rect opacity="0.66" width="2" height="10" rx="1" transform="matrix(-1 0 0 1 187 8)" fill="#A2B1CF" />
    <rect opacity="0.66" width="2" height="4" rx="1" transform="matrix(-1 0 0 1 192 11)" fill="#A2B1CF" />
    <rect opacity="0.66" width="2" height="2" rx="1" transform="matrix(-1 0 0 1 197 12)" fill="#A2B1CF" />
    <rect opacity="0.66" x="200" y="12" width="2" height="2" rx="1" fill="#A2B1CF" />
    <rect opacity="0.66" x="205" y="9" width="2" height="8" rx="1" fill="#A2B1CF" />
    <rect opacity="0.66" x="210" y="6" width="2" height="14" rx="1" fill="#A2B1CF" />
    <rect opacity="0.66" x="215" y="11" width="2" height="4" rx="1" fill="#A2B1CF" />
    <rect opacity="0.66" x="220" y="8" width="2" height="10" rx="1" fill="#A2B1CF" />
    <rect opacity="0.66" x="225" y="8" width="2" height="10" rx="1" fill="#A2B1CF" />
    <rect opacity="0.66" x="230" y="8" width="2" height="10" rx="1" fill="#A2B1CF" />
    <rect opacity="0.66" x="235" y="6" width="2" height="14" rx="1" fill="#A2B1CF" />
    <rect opacity="0.66" x="240" y="8" width="2" height="10" rx="1" fill="#A2B1CF" />
    <rect opacity="0.66" x="245" width="2" height="26" rx="1" fill="#A2B1CF" />
    <rect opacity="0.66" x="250" y="3" width="2" height="20" rx="1" fill="#A2B1CF" />
    <rect opacity="0.66" x="255" y="7" width="2" height="12" rx="1" fill="#A2B1CF" />
    <rect opacity="0.66" x="260" y="10" width="2" height="6" rx="1" fill="#A2B1CF" />
    <rect opacity="0.66" x="265" y="12" width="2" height="2" rx="1" fill="#A2B1CF" />
    <rect opacity="0.66" x="270" y="9" width="2" height="8" rx="1" fill="#A2B1CF" />
    <rect opacity="0.66" x="275" y="6" width="2" height="14" rx="1" fill="#A2B1CF" />
    <rect opacity="0.66" x="280" y="11" width="2" height="4" rx="1" fill="#A2B1CF" />
    <rect opacity="0.66" x="285" y="5" width="2" height="16" rx="1" fill="#A2B1CF" />
    <rect opacity="0.66" x="290" y="6" width="2" height="14" rx="1" fill="#A2B1CF" />
    <rect opacity="0.66" x="295" y="8" width="2" height="10" rx="1" fill="#A2B1CF" />
    <rect opacity="0.66" x="300" y="8" width="2" height="10" rx="1" fill="#A2B1CF" />
    <rect opacity="0.66" x="305" y="8" width="2" height="10" rx="1" fill="#A2B1CF" />
    <rect opacity="0.66" x="310" y="6" width="2" height="14" rx="1" fill="#A2B1CF" />
    <rect opacity="0.66" x="315" y="8" width="2" height="10" rx="1" fill="#A2B1CF" />
    <rect opacity="0.66" x="320" y="11" width="2" height="4" rx="1" fill="#A2B1CF" />
    <rect opacity="0.66" x="325" y="12" width="2" height="2" rx="1" fill="#A2B1CF" />
    <rect opacity="0.66" x="330" y="12" width="2" height="2" rx="1" fill="#A2B1CF" />
    <rect opacity="0.66" x="335" y="9" width="2" height="8" rx="1" fill="#A2B1CF" />
    <rect opacity="0.66" x="340" y="6" width="2" height="14" rx="1" fill="#A2B1CF" />
    <rect opacity="0.66" x="345" y="11" width="2" height="4" rx="1" fill="#A2B1CF" />
    <rect opacity="0.66" x="350" y="5" width="2" height="16" rx="1" fill="#A2B1CF" />
    <rect opacity="0.66" x="355" y="6" width="2" height="14" rx="1" fill="#A2B1CF" />
    <rect opacity="0.66" x="360" y="8" width="2" height="10" rx="1" fill="#A2B1CF" />
    <rect opacity="0.66" x="365" y="8" width="2" height="10" rx="1" fill="#A2B1CF" />
    <rect opacity="0.66" x="370" y="8" width="2" height="10" rx="1" fill="#A2B1CF" />
    <rect opacity="0.66" x="375" y="6" width="2" height="14" rx="1" fill="#A2B1CF" />
    <rect opacity="0.66" x="380" y="8" width="2" height="10" rx="1" fill="#A2B1CF" />
    <rect opacity="0.66" x="385" y="5" width="2" height="16" rx="1" fill="#A2B1CF" />
    <rect opacity="0.66" x="390" y="8" width="2" height="10" rx="1" fill="#A2B1CF" />
    <rect opacity="0.66" x="395" y="11" width="2" height="4" rx="1" fill="#A2B1CF" />
    <rect opacity="0.66" x="400" y="12" width="2" height="2" rx="1" fill="#A2B1CF" />
    <rect opacity="0.66" width="2" height="8" rx="1" transform="matrix(-1 0 0 1 407 9)" fill="#A2B1CF" />
    <rect opacity="0.66" width="2" height="2" rx="1" transform="matrix(-1 0 0 1 412 12)" fill="#A2B1CF" />
    <rect opacity="0.66" width="2" height="2" rx="1" transform="matrix(-1 0 0 1 417 12)" fill="#A2B1CF" />
</svg>
