<svg width="470" height="470" viewBox="0 0 470 470" fill="none" xmlns="http://www.w3.org/2000/svg">
<rect width="470" height="470" rx="122.609" fill="#4880FF"/>
<path d="M81.7393 147.539C81.7393 124.264 81.7393 112.627 86.3406 103.769C90.2181 96.3041 96.3045 90.2178 103.769 86.3403C112.627 81.7389 124.264 81.7389 147.539 81.7389H158.983C182.258 81.7389 193.895 81.7389 202.753 86.3403C210.218 90.2178 216.304 96.3041 220.181 103.769C224.783 112.627 224.783 124.264 224.783 147.539V224.782H147.539C124.264 224.782 112.627 224.782 103.769 220.181C96.3045 216.303 90.2181 210.217 86.3406 202.753C81.7393 193.895 81.7393 182.257 81.7393 158.982V147.539Z" fill="white"/>
<path d="M81.7393 311.017C81.7393 287.742 81.7393 276.105 86.3406 267.247C90.2181 259.782 96.3045 253.696 103.769 249.818C112.627 245.217 124.264 245.217 147.539 245.217H224.783V322.461C224.783 345.735 224.783 357.373 220.181 366.231C216.304 373.695 210.218 379.782 202.753 383.659C193.895 388.261 182.258 388.261 158.983 388.261H147.539C124.264 388.261 112.627 388.261 103.769 383.659C96.3045 379.782 90.2181 373.695 86.3406 366.231C81.7393 357.373 81.7393 345.735 81.7393 322.461V311.017Z" fill="white"/>
<path d="M245.218 147.539C245.218 124.264 245.218 112.627 249.819 103.769C253.697 96.3041 259.783 90.2178 267.248 86.3403C276.106 81.7389 287.743 81.7389 311.018 81.7389H388.261V158.982C388.261 182.257 388.261 193.895 383.66 202.753C379.782 210.217 373.696 216.303 366.232 220.181C357.374 224.782 345.736 224.782 322.461 224.782H311.018C287.743 224.782 276.106 224.782 267.248 220.181C259.783 216.303 253.697 210.217 249.819 202.753C245.218 193.895 245.218 182.257 245.218 158.982V147.539Z" fill="#AEC6FF"/>
<path d="M245.218 245.217H322.461C345.736 245.217 357.374 245.217 366.232 249.818C373.696 253.696 379.782 259.782 383.66 267.247C388.261 276.105 388.261 287.742 388.261 311.017V322.461C388.261 345.735 388.261 357.373 383.66 366.231C379.782 373.695 373.696 379.782 366.232 383.659C357.374 388.261 345.736 388.261 322.461 388.261H311.018C287.743 388.261 276.106 388.261 267.248 383.659C259.783 379.782 253.697 373.695 249.819 366.231C245.218 357.373 245.218 345.735 245.218 322.461V245.217Z" fill="white"/>
</svg>
