<svg aria-hidden="true" style="width: 0px; height: 0px; overflow: hidden; position: absolute;" xmlns="http://www.w3.org/2000/svg">
    <symbol id="chevron_down" viewBox="0 0 11 11">
      <path d="M5.5,8.5C5.3,8.5,5,8.4,4.8,8.2l-4.5-4c-0.4-0.4-0.4-1-0.1-1.4c0.4-0.4,1-0.5,1.4-0.1l3.8,3.4l3.8-3.4c0.4-0.4,1-0.3,1.4,0.1c0.4,0.4,0.3,1-0.1,1.4l-4.5,4C6,8.4,5.7,8.5,5.5,8.5z"/>
    </symbol>
    <symbol id="dashboard_icon" viewBox="0 0 512 512">
      <path d="M32,80c0-26.5,21.5-48,48-48h96c26.5,0,48,21.5,48,48v96c0,26.5-21.5,48-48,48H80c-26.5,0-48-21.5-48-48V80z M64,80v96c0,8.8,7.2,16,16,16h96c8.8,0,16-7.2,16-16V80c0-8.8-7.2-16-16-16H80C71.2,64,64,71.2,64,80z M32,336c0-26.5,21.5-48,48-48h96c26.5,0,48,21.5,48,48v96c0,26.5-21.5,48-48,48H80c-26.5,0-48-21.5-48-48V336z M64,336v96c0,8.8,7.2,16,16,16h96c8.8,0,16-7.2,16-16v-96c0-8.8-7.2-16-16-16H80C71.2,320,64,327.2,64,336z M432,32c26.5,0,48,21.5,48,48v96c0,26.5-21.5,48-48,48h-96c-26.5,0-48-21.5-48-48V80c0-26.5,21.5-48,48-48H432z M432,64h-96c-8.8,0-16,7.2-16,16v96c0,8.8,7.2,16,16,16h96c8.8,0,16-7.2,16-16V80C448,71.2,440.8,64,432,64z M288,336c0-26.5,21.5-48,48-48h96c26.5,0,48,21.5,48,48v96c0,26.5-21.5,48-48,48h-96c-26.5,0-48-21.5-48-48V336z M320,336v96c0,8.8,7.2,16,16,16h96c8.8,0,16-7.2,16-16v-96c0-8.8-7.2-16-16-16h-96C327.2,320,320,327.2,320,336z"/>
    </symbol>
    <symbol id="gear_icon" viewBox="0 0 512 512">
      <path d="M168 255.1C168 207.4 207.4 167.1 256 167.1C304.6 167.1 344 207.4 344 255.1C344 304.6 304.6 344 256 344C207.4 344 168 304.6 168 255.1zM256 199.1C225.1 199.1 200 225.1 200 255.1C200 286.9 225.1 311.1 256 311.1C286.9 311.1 312 286.9 312 255.1C312 225.1 286.9 199.1 256 199.1zM65.67 230.6L25.34 193.8C14.22 183.7 11.66 167.2 19.18 154.2L49.42 101.8C56.94 88.78 72.51 82.75 86.84 87.32L138.8 103.9C152.2 93.56 167 84.96 182.8 78.43L194.5 25.16C197.7 10.47 210.7 0 225.8 0H286.2C301.3 0 314.3 10.47 317.5 25.16L329.2 78.43C344.1 84.96 359.8 93.56 373.2 103.9L425.2 87.32C439.5 82.75 455.1 88.78 462.6 101.8L492.8 154.2C500.3 167.2 497.8 183.7 486.7 193.8L446.3 230.6C447.4 238.9 448 247.4 448 255.1C448 264.6 447.4 273.1 446.3 281.4L486.7 318.2C497.8 328.3 500.3 344.8 492.8 357.8L462.6 410.2C455.1 423.2 439.5 429.2 425.2 424.7L373.2 408.1C359.8 418.4 344.1 427 329.2 433.6L317.5 486.8C314.3 501.5 301.3 512 286.2 512H225.8C210.7 512 197.7 501.5 194.5 486.8L182.8 433.6C167 427 152.2 418.4 138.8 408.1L86.84 424.7C72.51 429.2 56.94 423.2 49.42 410.2L19.18 357.8C11.66 344.8 14.22 328.3 25.34 318.2L65.67 281.4C64.57 273.1 64 264.6 64 255.1C64 247.4 64.57 238.9 65.67 230.6V230.6zM158.4 129.2L145.1 139.5L77.13 117.8L46.89 170.2L99.58 218.2L97.39 234.8C96.47 241.7 96 248.8 96 255.1C96 263.2 96.47 270.3 97.39 277.2L99.58 293.8L46.89 341.8L77.13 394.2L145.1 372.5L158.4 382.8C169.5 391.4 181.9 398.6 195 403.1L210.5 410.4L225.8 480H286.2L301.5 410.4L316.1 403.1C330.1 398.6 342.5 391.4 353.6 382.8L366.9 372.5L434.9 394.2L465.1 341.8L412.4 293.8L414.6 277.2C415.5 270.3 416 263.2 416 256C416 248.8 415.5 241.7 414.6 234.8L412.4 218.2L465.1 170.2L434.9 117.8L366.9 139.5L353.6 129.2C342.5 120.6 330.1 113.4 316.1 108L301.5 101.6L286.2 32H225.8L210.5 101.6L195 108C181.9 113.4 169.5 120.6 158.4 129.2H158.4z"/>
    </symbol>
    <symbol id="building_icon" viewBox="0 0 24 24">
      <path d="M14 8H15C15.2652 8 15.5196 7.89464 15.7071 7.70711C15.8946 7.51957 16 7.26522 16 7C16 6.73478 15.8946 6.48043 15.7071 6.29289C15.5196 6.10536 15.2652 6 15 6H14C13.7348 6 13.4804 6.10536 13.2929 6.29289C13.1054 6.48043 13 6.73478 13 7C13 7.26522 13.1054 7.51957 13.2929 7.70711C13.4804 7.89464 13.7348 8 14 8ZM14 12H15C15.2652 12 15.5196 11.8946 15.7071 11.7071C15.8946 11.5196 16 11.2652 16 11C16 10.7348 15.8946 10.4804 15.7071 10.2929C15.5196 10.1054 15.2652 10 15 10H14C13.7348 10 13.4804 10.1054 13.2929 10.2929C13.1054 10.4804 13 10.7348 13 11C13 11.2652 13.1054 11.5196 13.2929 11.7071C13.4804 11.8946 13.7348 12 14 12ZM9 8H10C10.2652 8 10.5196 7.89464 10.7071 7.70711C10.8946 7.51957 11 7.26522 11 7C11 6.73478 10.8946 6.48043 10.7071 6.29289C10.5196 6.10536 10.2652 6 10 6H9C8.73478 6 8.48043 6.10536 8.29289 6.29289C8.10536 6.48043 8 6.73478 8 7C8 7.26522 8.10536 7.51957 8.29289 7.70711C8.48043 7.89464 8.73478 8 9 8ZM9 12H10C10.2652 12 10.5196 11.8946 10.7071 11.7071C10.8946 11.5196 11 11.2652 11 11C11 10.7348 10.8946 10.4804 10.7071 10.2929C10.5196 10.1054 10.2652 10 10 10H9C8.73478 10 8.48043 10.1054 8.29289 10.2929C8.10536 10.4804 8 10.7348 8 11C8 11.2652 8.10536 11.5196 8.29289 11.7071C8.48043 11.8946 8.73478 12 9 12ZM21 20H20V3C20 2.73478 19.8946 2.48043 19.7071 2.29289C19.5196 2.10536 19.2652 2 19 2H5C4.73478 2 4.48043 2.10536 4.29289 2.29289C4.10536 2.48043 4 2.73478 4 3V20H3C2.73478 20 2.48043 20.1054 2.29289 20.2929C2.10536 20.4804 2 20.7348 2 21C2 21.2652 2.10536 21.5196 2.29289 21.7071C2.48043 21.8946 2.73478 22 3 22H21C21.2652 22 21.5196 21.8946 21.7071 21.7071C21.8946 21.5196 22 21.2652 22 21C22 20.7348 21.8946 20.4804 21.7071 20.2929C21.5196 20.1054 21.2652 20 21 20ZM13 20H11V16H13V20ZM18 20H15V15C15 14.7348 14.8946 14.4804 14.7071 14.2929C14.5196 14.1054 14.2652 14 14 14H10C9.73478 14 9.48043 14.1054 9.29289 14.2929C9.10536 14.4804 9 14.7348 9 15V20H6V4H18V20Z"/>
    </symbol>
    <symbol id="users_icon" viewBox="0 0 24 24">
      <path d="M12.3 12.22C12.8336 11.7581 13.2616 11.1869 13.5549 10.545C13.8482 9.90316 14 9.20571 14 8.5C14 7.17392 13.4732 5.90215 12.5355 4.96447C11.5979 4.02678 10.3261 3.5 9 3.5C7.67392 3.5 6.40215 4.02678 5.46447 4.96447C4.52678 5.90215 4 7.17392 4 8.5C3.99999 9.20571 4.1518 9.90316 4.44513 10.545C4.73845 11.1869 5.16642 11.7581 5.7 12.22C4.30014 12.8539 3.11247 13.8775 2.27898 15.1685C1.4455 16.4596 1.00147 17.9633 1 19.5C1 19.7652 1.10536 20.0196 1.29289 20.2071C1.48043 20.3946 1.73478 20.5 2 20.5C2.26522 20.5 2.51957 20.3946 2.70711 20.2071C2.89464 20.0196 3 19.7652 3 19.5C3 17.9087 3.63214 16.3826 4.75736 15.2574C5.88258 14.1321 7.4087 13.5 9 13.5C10.5913 13.5 12.1174 14.1321 13.2426 15.2574C14.3679 16.3826 15 17.9087 15 19.5C15 19.7652 15.1054 20.0196 15.2929 20.2071C15.4804 20.3946 15.7348 20.5 16 20.5C16.2652 20.5 16.5196 20.3946 16.7071 20.2071C16.8946 20.0196 17 19.7652 17 19.5C16.9985 17.9633 16.5545 16.4596 15.721 15.1685C14.8875 13.8775 13.6999 12.8539 12.3 12.22ZM9 11.5C8.40666 11.5 7.82664 11.3241 7.33329 10.9944C6.83994 10.6648 6.45542 10.1962 6.22836 9.64805C6.0013 9.09987 5.94189 8.49667 6.05764 7.91473C6.1734 7.33279 6.45912 6.79824 6.87868 6.37868C7.29824 5.95912 7.83279 5.6734 8.41473 5.55764C8.99667 5.44189 9.59987 5.5013 10.1481 5.72836C10.6962 5.95542 11.1648 6.33994 11.4944 6.83329C11.8241 7.32664 12 7.90666 12 8.5C12 9.29565 11.6839 10.0587 11.1213 10.6213C10.5587 11.1839 9.79565 11.5 9 11.5ZM18.74 11.82C19.38 11.0993 19.798 10.2091 19.9438 9.25634C20.0896 8.30362 19.9569 7.32907 19.5618 6.45C19.1666 5.57093 18.5258 4.8248 17.7165 4.30142C16.9071 3.77805 15.9638 3.49974 15 3.5C14.7348 3.5 14.4804 3.60536 14.2929 3.79289C14.1054 3.98043 14 4.23478 14 4.5C14 4.76522 14.1054 5.01957 14.2929 5.20711C14.4804 5.39464 14.7348 5.5 15 5.5C15.7956 5.5 16.5587 5.81607 17.1213 6.37868C17.6839 6.94129 18 7.70435 18 8.5C17.9986 9.02524 17.8593 9.5409 17.5961 9.99542C17.3328 10.4499 16.9549 10.8274 16.5 11.09C16.3517 11.1755 16.2279 11.2977 16.1404 11.4447C16.0528 11.5918 16.0045 11.7589 16 11.93C15.9958 12.0998 16.0349 12.2678 16.1137 12.4183C16.1924 12.5687 16.3081 12.6967 16.45 12.79L16.84 13.05L16.97 13.12C18.1754 13.6917 19.1923 14.596 19.901 15.7263C20.6096 16.8566 20.9805 18.1659 20.97 19.5C20.97 19.7652 21.0754 20.0196 21.2629 20.2071C21.4504 20.3946 21.7048 20.5 21.97 20.5C22.2352 20.5 22.4896 20.3946 22.6771 20.2071C22.8646 20.0196 22.97 19.7652 22.97 19.5C22.9782 17.9654 22.5938 16.4543 21.8535 15.1101C21.1131 13.7659 20.0413 12.6333 18.74 11.82Z"/>
    </symbol>
    <symbol id="folder_icon" viewBox="0 0 24 24">
      <path d="M22.78 10.37C22.6859 10.254 22.567 10.1605 22.432 10.0965C22.297 10.0325 22.1494 9.99951 22 10H20V9.00002C20 8.20437 19.6839 7.44131 19.1213 6.8787C18.5587 6.31609 17.7956 6.00002 17 6.00002H10.72L10.4 5.00002C10.1926 4.41325 9.80775 3.90553 9.2989 3.54718C8.79005 3.18884 8.18236 2.99762 7.56 3.00002H4C3.20435 3.00002 2.44129 3.31609 1.87868 3.8787C1.31607 4.44131 1 5.20437 1 6.00002V18C1 18.7957 1.31607 19.5587 1.87868 20.1213C2.44129 20.684 3.20435 21 4 21H18.4C19.0812 20.998 19.7415 20.7643 20.2722 20.3372C20.8029 19.9101 21.1724 19.3151 21.32 18.65L23 11.22C23.0304 11.0709 23.0264 10.9169 22.9883 10.7696C22.9502 10.6223 22.8789 10.4856 22.78 10.37ZM5.37 18.22C5.3192 18.4456 5.19179 18.6466 5.00946 18.7888C4.82714 18.931 4.60116 19.0057 4.37 19H4C3.73478 19 3.48043 18.8947 3.29289 18.7071C3.10536 18.5196 3 18.2652 3 18V6.00002C3 5.73481 3.10536 5.48045 3.29289 5.29292C3.48043 5.10538 3.73478 5.00002 4 5.00002H7.56C7.77807 4.98864 7.99386 5.04895 8.17443 5.17174C8.355 5.29452 8.49042 5.47304 8.56 5.68002L9.1 7.32002C9.16417 7.51077 9.2844 7.67771 9.44497 7.79903C9.60554 7.92035 9.79898 7.9904 10 8.00002H17C17.2652 8.00002 17.5196 8.10538 17.7071 8.29292C17.8946 8.48045 18 8.73481 18 9.00002V10H8C7.76884 9.99437 7.54286 10.069 7.36054 10.2112C7.17821 10.3534 7.0508 10.5544 7 10.78L5.37 18.22ZM19.37 18.22C19.3192 18.4456 19.1918 18.6466 19.0095 18.7888C18.8271 18.931 18.6012 19.0057 18.37 19H7.21C7.26165 18.8886 7.29862 18.771 7.32 18.65L8.8 12H20.8L19.37 18.22Z"/>
    </symbol>
    <symbol id="case_icon" viewBox="0 0 24 24">
      <path d="M19 6H16V5C16 4.46957 15.7893 3.96086 15.4142 3.58579C15.0391 3.21071 14.5304 3 14 3H10C9.46957 3 8.96086 3.21071 8.58579 3.58579C8.21071 3.96086 8 4.46957 8 5V6H5C4.20435 6 3.44129 6.31607 2.87868 6.87868C2.31607 7.44129 2 8.20435 2 9V18C2 18.7956 2.31607 19.5587 2.87868 20.1213C3.44129 20.6839 4.20435 21 5 21H19C19.7956 21 20.5587 20.6839 21.1213 20.1213C21.6839 19.5587 22 18.7956 22 18V9C22 8.20435 21.6839 7.44129 21.1213 6.87868C20.5587 6.31607 19.7956 6 19 6ZM10 5H14V6H10V5ZM20 18C20 18.2652 19.8946 18.5196 19.7071 18.7071C19.5196 18.8946 19.2652 19 19 19H5C4.73478 19 4.48043 18.8946 4.29289 18.7071C4.10536 18.5196 4 18.2652 4 18V12.39L8.68 14C8.78618 14.0144 8.89382 14.0144 9 14H15C15.1084 13.998 15.2161 13.9812 15.32 13.95L20 12.39V18ZM20 10.28L14.84 12H9.16L4 10.28V9C4 8.73478 4.10536 8.48043 4.29289 8.29289C4.48043 8.10536 4.73478 8 5 8H19C19.2652 8 19.5196 8.10536 19.7071 8.29289C19.8946 8.48043 20 8.73478 20 9V10.28Z"/>
    </symbol>
    <symbol id="invoice_icon" viewBox="0 0 24 24">
      <path d="M13 15.9999H7.00001C6.73479 15.9999 6.48044 16.1053 6.2929 16.2928C6.10537 16.4804 6.00001 16.7347 6.00001 16.9999C6.00001 17.2652 6.10537 17.5195 6.2929 17.7071C6.48044 17.8946 6.73479 17.9999 7.00001 17.9999H13C13.2652 17.9999 13.5196 17.8946 13.7071 17.7071C13.8947 17.5195 14 17.2652 14 16.9999C14 16.7347 13.8947 16.4804 13.7071 16.2928C13.5196 16.1053 13.2652 15.9999 13 15.9999ZM9.00001 9.99995H11C11.2652 9.99995 11.5196 9.89459 11.7071 9.70705C11.8947 9.51952 12 9.26516 12 8.99995C12 8.73473 11.8947 8.48038 11.7071 8.29284C11.5196 8.1053 11.2652 7.99995 11 7.99995H9.00001C8.73479 7.99995 8.48044 8.1053 8.2929 8.29284C8.10537 8.48038 8.00001 8.73473 8.00001 8.99995C8.00001 9.26516 8.10537 9.51952 8.2929 9.70705C8.48044 9.89459 8.73479 9.99995 9.00001 9.99995ZM21 11.9999H18V2.99995C18.0007 2.82374 17.9548 2.65047 17.867 2.49769C17.7792 2.34491 17.6526 2.21805 17.5 2.12995C17.348 2.04218 17.1755 1.99597 17 1.99597C16.8245 1.99597 16.652 2.04218 16.5 2.12995L13.5 3.84995L10.5 2.12995C10.348 2.04218 10.1755 1.99597 10 1.99597C9.82447 1.99597 9.65203 2.04218 9.50001 2.12995L6.50001 3.84995L3.50001 2.12995C3.34799 2.04218 3.17554 1.99597 3.00001 1.99597C2.82447 1.99597 2.65203 2.04218 2.50001 2.12995C2.3474 2.21805 2.22079 2.34491 2.13299 2.49769C2.04518 2.65047 1.99931 2.82374 2.00001 2.99995V18.9999C2.00001 19.7956 2.31608 20.5587 2.87869 21.1213C3.4413 21.6839 4.20436 21.9999 5.00001 21.9999H19C19.7957 21.9999 20.5587 21.6839 21.1213 21.1213C21.6839 20.5587 22 19.7956 22 18.9999V12.9999C22 12.7347 21.8947 12.4804 21.7071 12.2928C21.5196 12.1053 21.2652 11.9999 21 11.9999ZM5.00001 19.9999C4.73479 19.9999 4.48044 19.8946 4.2929 19.7071C4.10536 19.5195 4.00001 19.2652 4.00001 18.9999V4.72995L6.00001 5.86995C6.15435 5.95056 6.32589 5.99266 6.50001 5.99266C6.67413 5.99266 6.84567 5.95056 7.00001 5.86995L10 4.14995L13 5.86995C13.1543 5.95056 13.3259 5.99266 13.5 5.99266C13.6741 5.99266 13.8457 5.95056 14 5.86995L16 4.72995V18.9999C16.0027 19.3411 16.0636 19.6793 16.18 19.9999H5.00001ZM20 18.9999C20 19.2652 19.8947 19.5195 19.7071 19.7071C19.5196 19.8946 19.2652 19.9999 19 19.9999C18.7348 19.9999 18.4804 19.8946 18.2929 19.7071C18.1054 19.5195 18 19.2652 18 18.9999V13.9999H20V18.9999ZM13 11.9999H7.00001C6.73479 11.9999 6.48044 12.1053 6.2929 12.2928C6.10537 12.4804 6.00001 12.7347 6.00001 12.9999C6.00001 13.2652 6.10537 13.5195 6.2929 13.7071C6.48044 13.8946 6.73479 13.9999 7.00001 13.9999H13C13.2652 13.9999 13.5196 13.8946 13.7071 13.7071C13.8947 13.5195 14 13.2652 14 12.9999C14 12.7347 13.8947 12.4804 13.7071 12.2928C13.5196 12.1053 13.2652 11.9999 13 11.9999Z"/>
    </symbol>
    <symbol id="wrench_icon" viewBox="0 0 24 24">
      <path d="M21.71 15.58L17.19 11.07C17.2846 10.6094 17.3315 10.1402 17.33 9.67001C17.3296 8.38066 17.0042 7.1122 16.3839 5.98189C15.7636 4.85158 14.8683 3.89588 13.7809 3.20315C12.6934 2.51041 11.4489 2.10299 10.1623 2.01855C8.87572 1.9341 7.58862 2.17535 6.41995 2.72001C6.27189 2.78764 6.14258 2.8904 6.04324 3.01936C5.94391 3.14832 5.87756 3.29958 5.84995 3.46001C5.82246 3.61839 5.83355 3.78107 5.88229 3.93426C5.93103 4.08745 6.01599 4.22663 6.12995 4.34001L10.48 8.68001L8.67995 10.48L4.33995 6.13001C4.22562 6.01781 4.08601 5.93472 3.93287 5.88773C3.77972 5.84075 3.61754 5.83124 3.45995 5.86001C3.30053 5.8866 3.14994 5.95144 3.02106 6.04897C2.89218 6.1465 2.78886 6.27381 2.71995 6.42001C2.17348 7.59251 1.93243 8.88419 2.01924 10.1749C2.10606 11.4656 2.5179 12.7133 3.21647 13.8021C3.91503 14.8908 4.87762 15.7852 6.0147 16.4021C7.15177 17.0189 8.42638 17.3381 9.71995 17.33C10.1902 17.3315 10.6593 17.2846 11.12 17.19L15.63 21.71C15.7229 21.8037 15.8335 21.8781 15.9554 21.9289C16.0772 21.9797 16.2079 22.0058 16.34 22.0058C16.472 22.0058 16.6027 21.9797 16.7245 21.9289C16.8464 21.8781 16.957 21.8037 17.05 21.71C17.1437 21.617 17.2181 21.5064 17.2688 21.3846C17.3196 21.2627 17.3458 21.132 17.3458 21C17.3458 20.868 17.3196 20.7373 17.2688 20.6154C17.2181 20.4936 17.1437 20.383 17.05 20.29L12.15 15.39C12.0275 15.2684 11.8757 15.1805 11.7092 15.1349C11.5427 15.0894 11.3673 15.0877 11.2 15.13C10.7171 15.2593 10.2198 15.3265 9.71995 15.33C8.972 15.3366 8.23014 15.1951 7.53709 14.9138C6.84405 14.6324 6.21353 14.2167 5.68184 13.6906C5.15016 13.1645 4.72783 12.5384 4.43917 11.8484C4.15052 11.1583 4.00124 10.418 3.99995 9.67001C3.99866 9.33502 4.02542 9.00052 4.07995 8.67001L7.99995 12.6C8.09292 12.6937 8.20352 12.7681 8.32538 12.8189C8.44724 12.8697 8.57794 12.8958 8.70995 12.8958C8.84197 12.8958 8.97267 12.8697 9.09453 12.8189C9.21639 12.7681 9.32699 12.6937 9.41995 12.6L12.6 9.39001C12.7802 9.20354 12.8809 8.95434 12.8809 8.695C12.8809 8.43567 12.7802 8.18647 12.6 8.00001L8.70995 4.08001C9.04054 4.02602 9.37499 3.99926 9.70995 4.00001C11.212 4.00265 12.6516 4.6012 13.7128 5.66424C14.774 6.72729 15.37 8.16796 15.37 9.67001C15.3665 10.1698 15.2993 10.6672 15.17 11.15C15.1276 11.3173 15.1293 11.4928 15.1749 11.6592C15.2204 11.8257 15.3083 11.9776 15.43 12.1L20.33 17C20.5183 17.1883 20.7737 17.2941 21.04 17.2941C21.3063 17.2941 21.5616 17.1883 21.75 17C21.9383 16.8117 22.044 16.5563 22.044 16.29C22.044 16.0237 21.9383 15.7683 21.75 15.58H21.71Z"/>
    </symbol>
    <symbol id="clipboard_icon" viewBox="0 0 24 24">
      <path d="M13 14H9C8.73478 14 8.48043 14.1054 8.29289 14.2929C8.10536 14.4804 8 14.7348 8 15C8 15.2652 8.10536 15.5196 8.29289 15.7071C8.48043 15.8946 8.73478 16 9 16H13C13.2652 16 13.5196 15.8946 13.7071 15.7071C13.8946 15.5196 14 15.2652 14 15C14 14.7348 13.8946 14.4804 13.7071 14.2929C13.5196 14.1054 13.2652 14 13 14ZM17 4H15.82C15.6137 3.41645 15.2319 2.911 14.7271 2.55294C14.2222 2.19488 13.6189 2.00174 13 2H11C10.3811 2.00174 9.7778 2.19488 9.27293 2.55294C8.76807 2.911 8.38631 3.41645 8.18 4H7C6.20435 4 5.44129 4.31607 4.87868 4.87868C4.31607 5.44129 4 6.20435 4 7V19C4 19.7956 4.31607 20.5587 4.87868 21.1213C5.44129 21.6839 6.20435 22 7 22H17C17.7956 22 18.5587 21.6839 19.1213 21.1213C19.6839 20.5587 20 19.7956 20 19V7C20 6.20435 19.6839 5.44129 19.1213 4.87868C18.5587 4.31607 17.7956 4 17 4ZM10 5C10 4.73478 10.1054 4.48043 10.2929 4.29289C10.4804 4.10536 10.7348 4 11 4H13C13.2652 4 13.5196 4.10536 13.7071 4.29289C13.8946 4.48043 14 4.73478 14 5V6H10V5ZM18 19C18 19.2652 17.8946 19.5196 17.7071 19.7071C17.5196 19.8946 17.2652 20 17 20H7C6.73478 20 6.48043 19.8946 6.29289 19.7071C6.10536 19.5196 6 19.2652 6 19V7C6 6.73478 6.10536 6.48043 6.29289 6.29289C6.48043 6.10536 6.73478 6 7 6H8V7C8 7.26522 8.10536 7.51957 8.29289 7.70711C8.48043 7.89464 8.73478 8 9 8H15C15.2652 8 15.5196 7.89464 15.7071 7.70711C15.8946 7.51957 16 7.26522 16 7V6H17C17.2652 6 17.5196 6.10536 17.7071 6.29289C17.8946 6.48043 18 6.73478 18 7V19ZM15 10H9C8.73478 10 8.48043 10.1054 8.29289 10.2929C8.10536 10.4804 8 10.7348 8 11C8 11.2652 8.10536 11.5196 8.29289 11.7071C8.48043 11.8946 8.73478 12 9 12H15C15.2652 12 15.5196 11.8946 15.7071 11.7071C15.8946 11.5196 16 11.2652 16 11C16 10.7348 15.8946 10.4804 15.7071 10.2929C15.5196 10.1054 15.2652 10 15 10Z"/>
    </symbol>
    <symbol id="edit_icon" viewBox="0 0 24 24">
      <path d="M21 11.9999C20.7348 11.9999 20.4804 12.1053 20.2929 12.2928C20.1054 12.4804 20 12.7347 20 12.9999V18.9999C20 19.2652 19.8946 19.5195 19.7071 19.707C19.5196 19.8946 19.2652 19.9999 19 19.9999H5C4.73478 19.9999 4.48043 19.8946 4.29289 19.707C4.10536 19.5195 4 19.2652 4 18.9999V4.99994C4 4.73472 4.10536 4.48037 4.29289 4.29283C4.48043 4.1053 4.73478 3.99994 5 3.99994H11C11.2652 3.99994 11.5196 3.89458 11.7071 3.70705C11.8946 3.51951 12 3.26516 12 2.99994C12 2.73472 11.8946 2.48037 11.7071 2.29283C11.5196 2.1053 11.2652 1.99994 11 1.99994H5C4.20435 1.99994 3.44129 2.31601 2.87868 2.87862C2.31607 3.44123 2 4.20429 2 4.99994V18.9999C2 19.7956 2.31607 20.5587 2.87868 21.1213C3.44129 21.6839 4.20435 21.9999 5 21.9999H19C19.7956 21.9999 20.5587 21.6839 21.1213 21.1213C21.6839 20.5587 22 19.7956 22 18.9999V12.9999C22 12.7347 21.8946 12.4804 21.7071 12.2928C21.5196 12.1053 21.2652 11.9999 21 11.9999ZM6 12.7599V16.9999C6 17.2652 6.10536 17.5195 6.29289 17.707C6.48043 17.8946 6.73478 17.9999 7 17.9999H11.24C11.3716 18.0007 11.5021 17.9755 11.6239 17.9257C11.7457 17.8759 11.8566 17.8026 11.95 17.7099L18.87 10.7799L21.71 7.99994C21.8037 7.90698 21.8781 7.79637 21.9289 7.67452C21.9797 7.55266 22.0058 7.42195 22.0058 7.28994C22.0058 7.15793 21.9797 7.02722 21.9289 6.90536C21.8781 6.7835 21.8037 6.6729 21.71 6.57994L17.47 2.28994C17.377 2.19621 17.2664 2.12182 17.1446 2.07105C17.0227 2.02028 16.892 1.99414 16.76 1.99414C16.628 1.99414 16.4973 2.02028 16.3754 2.07105C16.2536 2.12182 16.143 2.19621 16.05 2.28994L13.23 5.11994L6.29 12.0499C6.19732 12.1434 6.12399 12.2542 6.07423 12.376C6.02446 12.4979 5.99924 12.6283 6 12.7599ZM16.76 4.40994L19.59 7.23994L18.17 8.65994L15.34 5.82994L16.76 4.40994ZM8 13.1699L13.93 7.23994L16.76 10.0699L10.83 15.9999H8V13.1699Z"/>
    </symbol>
    <symbol id="wallet_icon" viewBox="0 0 24 24">
      <path d="M19 7H18V6C18 5.20435 17.6839 4.44129 17.1213 3.87868C16.5587 3.31607 15.7956 3 15 3H5C4.20435 3 3.44129 3.31607 2.87868 3.87868C2.31607 4.44129 2 5.20435 2 6V18C2 18.7956 2.31607 19.5587 2.87868 20.1213C3.44129 20.6839 4.20435 21 5 21H19C19.7956 21 20.5587 20.6839 21.1213 20.1213C21.6839 19.5587 22 18.7956 22 18V10C22 9.20435 21.6839 8.44129 21.1213 7.87868C20.5587 7.31607 19.7956 7 19 7ZM5 5H15C15.2652 5 15.5196 5.10536 15.7071 5.29289C15.8946 5.48043 16 5.73478 16 6V7H5C4.73478 7 4.48043 6.89464 4.29289 6.70711C4.10536 6.51957 4 6.26522 4 6C4 5.73478 4.10536 5.48043 4.29289 5.29289C4.48043 5.10536 4.73478 5 5 5ZM20 15H19C18.7348 15 18.4804 14.8946 18.2929 14.7071C18.1054 14.5196 18 14.2652 18 14C18 13.7348 18.1054 13.4804 18.2929 13.2929C18.4804 13.1054 18.7348 13 19 13H20V15ZM20 11H19C18.2044 11 17.4413 11.3161 16.8787 11.8787C16.3161 12.4413 16 13.2044 16 14C16 14.7956 16.3161 15.5587 16.8787 16.1213C17.4413 16.6839 18.2044 17 19 17H20V18C20 18.2652 19.8946 18.5196 19.7071 18.7071C19.5196 18.8946 19.2652 19 19 19H5C4.73478 19 4.48043 18.8946 4.29289 18.7071C4.10536 18.5196 4 18.2652 4 18V8.83C4.32127 8.94302 4.65943 9.00051 5 9H19C19.2652 9 19.5196 9.10536 19.7071 9.29289C19.8946 9.48043 20 9.73478 20 10V11Z"/>
    </symbol>
    <symbol id="modules_icon" viewBox="0 0 24 24">
      <path d="M7.99994 11H15.9999C16.1477 10.999 16.2933 10.9654 16.4264 10.9014C16.5596 10.8374 16.6769 10.7447 16.7699 10.63C16.8677 10.5176 16.9391 10.3847 16.9789 10.2411C17.0187 10.0974 17.0259 9.94676 16.9999 9.80002L15.9999 4.80002C15.9532 4.57074 15.8275 4.36512 15.6448 4.21895C15.4621 4.07277 15.2339 3.9953 14.9999 4.00002H8.99994C8.766 3.9953 8.53781 4.07277 8.35509 4.21895C8.17237 4.36512 8.0467 4.57074 7.99994 4.80002L6.99994 9.80002C6.97132 9.94529 6.97531 10.0951 7.01163 10.2386C7.04794 10.3822 7.11568 10.5158 7.20994 10.63C7.30512 10.7474 7.42564 10.8416 7.56247 10.9057C7.6993 10.9698 7.84887 11.002 7.99994 11ZM9.81994 6.00002H14.1799L14.7799 9.00002H9.21994L9.81994 6.00002ZM21.9999 13.8C21.9532 13.5707 21.8275 13.3651 21.6448 13.2189C21.4621 13.0728 21.2339 12.9953 20.9999 13H14.9999C14.766 12.9953 14.5378 13.0728 14.3551 13.2189C14.1724 13.3651 14.0467 13.5707 13.9999 13.8L12.9999 18.8C12.9713 18.9453 12.9753 19.0951 13.0116 19.2386C13.0479 19.3822 13.1157 19.5158 13.2099 19.63C13.3051 19.7474 13.4256 19.8416 13.5625 19.9057C13.6993 19.9698 13.8489 20.002 13.9999 20H21.9999C22.1477 19.999 22.2933 19.9654 22.4264 19.9014C22.5596 19.8374 22.6769 19.7447 22.7699 19.63C22.8677 19.5175 22.9391 19.3847 22.9789 19.241C23.0187 19.0974 23.0259 18.9468 22.9999 18.8L21.9999 13.8ZM15.2199 18L15.8199 15H20.1799L20.7799 18H15.2199ZM8.99994 13H2.99994C2.766 12.9953 2.53781 13.0728 2.35509 13.2189C2.17237 13.3651 2.0467 13.5707 1.99994 13.8L0.999945 18.8C0.971321 18.9453 0.975311 19.0951 1.01163 19.2386C1.04794 19.3822 1.11568 19.5158 1.20994 19.63C1.30512 19.7474 1.42565 19.8416 1.56247 19.9057C1.6993 19.9698 1.84887 20.002 1.99994 20H9.99994C10.1477 19.999 10.2933 19.9654 10.4264 19.9014C10.5596 19.8374 10.6769 19.7447 10.7699 19.63C10.8677 19.5175 10.9391 19.3847 10.9789 19.241C11.0187 19.0974 11.0259 18.9468 10.9999 18.8L9.99994 13.8C9.95319 13.5707 9.82752 13.3651 9.6448 13.2189C9.46208 13.0728 9.23389 12.9953 8.99994 13ZM3.21994 18L3.81994 15H8.17994L8.77994 18H3.21994Z"/>
    </symbol>
    <symbol id="comment_icon" viewBox="0 0 24 24">
      <path d="M13 11H7C6.73478 11 6.48043 11.1054 6.29289 11.2929C6.10536 11.4804 6 11.7348 6 12C6 12.2652 6.10536 12.5196 6.29289 12.7071C6.48043 12.8946 6.73478 13 7 13H13C13.2652 13 13.5196 12.8946 13.7071 12.7071C13.8946 12.5196 14 12.2652 14 12C14 11.7348 13.8946 11.4804 13.7071 11.2929C13.5196 11.1054 13.2652 11 13 11ZM17 7H7C6.73478 7 6.48043 7.10536 6.29289 7.29289C6.10536 7.48043 6 7.73478 6 8C6 8.26522 6.10536 8.51957 6.29289 8.70711C6.48043 8.89464 6.73478 9 7 9H17C17.2652 9 17.5196 8.89464 17.7071 8.70711C17.8946 8.51957 18 8.26522 18 8C18 7.73478 17.8946 7.48043 17.7071 7.29289C17.5196 7.10536 17.2652 7 17 7ZM19 2H5C4.20435 2 3.44129 2.31607 2.87868 2.87868C2.31607 3.44129 2 4.20435 2 5V15C2 15.7956 2.31607 16.5587 2.87868 17.1213C3.44129 17.6839 4.20435 18 5 18H16.59L20.29 21.71C20.3834 21.8027 20.4943 21.876 20.6161 21.9258C20.7379 21.9755 20.8684 22.0008 21 22C21.1312 22.0034 21.2613 21.976 21.38 21.92C21.5626 21.845 21.7189 21.7176 21.8293 21.5539C21.9396 21.3901 21.999 21.1974 22 21V5C22 4.20435 21.6839 3.44129 21.1213 2.87868C20.5587 2.31607 19.7956 2 19 2ZM20 18.59L17.71 16.29C17.6166 16.1973 17.5057 16.124 17.3839 16.0742C17.2621 16.0245 17.1316 15.9992 17 16H5C4.73478 16 4.48043 15.8946 4.29289 15.7071C4.10536 15.5196 4 15.2652 4 15V5C4 4.73478 4.10536 4.48043 4.29289 4.29289C4.48043 4.10536 4.73478 4 5 4H19C19.2652 4 19.5196 4.10536 19.7071 4.29289C19.8946 4.48043 20 4.73478 20 5V18.59Z"/>
    </symbol>
    <symbol id="info_icon" viewBox="0 0 24 24">
      <path d="M12 11C11.7348 11 11.4804 11.1054 11.2929 11.2929C11.1054 11.4804 11 11.7348 11 12V16C11 16.2652 11.1054 16.5196 11.2929 16.7071C11.4804 16.8946 11.7348 17 12 17C12.2652 17 12.5196 16.8946 12.7071 16.7071C12.8946 16.5196 13 16.2652 13 16V12C13 11.7348 12.8946 11.4804 12.7071 11.2929C12.5196 11.1054 12.2652 11 12 11ZM12.38 7.08C12.1365 6.97998 11.8635 6.97998 11.62 7.08C11.4973 7.12759 11.3851 7.19896 11.29 7.29C11.2017 7.3872 11.1306 7.49882 11.08 7.62C11.024 7.73868 10.9966 7.86882 11 8C10.9992 8.13161 11.0245 8.26207 11.0742 8.38391C11.124 8.50574 11.1973 8.61656 11.29 8.71C11.3872 8.79833 11.4988 8.86936 11.62 8.92C11.7715 8.98224 11.936 9.00632 12.099 8.99011C12.2619 8.97391 12.4184 8.91792 12.5547 8.82707C12.691 8.73622 12.8029 8.61328 12.8805 8.46907C12.9582 8.32486 12.9992 8.16378 13 8C12.9963 7.73523 12.8927 7.48163 12.71 7.29C12.6149 7.19896 12.5028 7.12759 12.38 7.08ZM12 2C10.0222 2 8.08879 2.58649 6.4443 3.6853C4.79981 4.78412 3.51809 6.3459 2.76121 8.17317C2.00433 10.0004 1.8063 12.0111 2.19215 13.9509C2.578 15.8907 3.53041 17.6725 4.92894 19.0711C6.32746 20.4696 8.10929 21.422 10.0491 21.8079C11.9889 22.1937 13.9996 21.9957 15.8268 21.2388C17.6541 20.4819 19.2159 19.2002 20.3147 17.5557C21.4135 15.9112 22 13.9778 22 12C22 10.6868 21.7413 9.38642 21.2388 8.17317C20.7363 6.95991 19.9997 5.85752 19.0711 4.92893C18.1425 4.00035 17.0401 3.26375 15.8268 2.7612C14.6136 2.25866 13.3132 2 12 2ZM12 20C10.4178 20 8.87104 19.5308 7.55544 18.6518C6.23985 17.7727 5.21447 16.5233 4.60897 15.0615C4.00347 13.5997 3.84504 11.9911 4.15372 10.4393C4.4624 8.88743 5.22433 7.46197 6.34315 6.34315C7.46197 5.22433 8.88743 4.4624 10.4393 4.15372C11.9911 3.84504 13.5997 4.00346 15.0615 4.60896C16.5233 5.21447 17.7727 6.23984 18.6518 7.55544C19.5308 8.87103 20 10.4177 20 12C20 14.1217 19.1572 16.1566 17.6569 17.6569C16.1566 19.1571 14.1217 20 12 20Z"/>
    </symbol>
    <symbol id="circle_plus_icon" viewBox="0 0 24 24">
      <path d="M12,24C5.4,24,0,18.6,0,12C0,5.4,5.4,0,12,0c6.6,0,12,5.4,12,12C24,18.6,18.6,24,12,24z M12,2C6.5,2,2,6.5,2,12c0,5.5,4.5,10,10,10c5.5,0,10-4.5,10-10C22,6.5,17.5,2,12,2z"/>
    	<path d="M12,18.6c-0.6,0-1-0.4-1-1V6.4c0-0.6,0.4-1,1-1s1,0.4,1,1v11.2C13,18.2,12.6,18.6,12,18.6z"/>
    	<path d="M17.6,13H6.4c-0.6,0-1-0.4-1-1s0.4-1,1-1h11.2c0.6,0,1,0.4,1,1S18.2,13,17.6,13z"/>
    </symbol>
    <symbol id="burger_icon" viewBox="0 0 512 512">
      <path d="M32,96c0-8.84,7.16-16,16-16h416c8.8,0,16,7.16,16,16s-7.2,16-16,16H48C39.16,112,32,104.84,32,96z M32,256c0-8.8,7.16-16,16-16h416c8.8,0,16,7.2,16,16c0,8.8-7.2,16-16,16H48C39.16,272,32,264.8,32,256z M464,432H48c-8.84,0-16-7.2-16-16s7.16-16,16-16h416c8.8,0,16,7.2,16,16S472.8,432,464,432z"/>
    </symbol>
    <symbol id="chevron_left" viewBox="0 0 11 11">
      <path d="M2.5,5.6c0-0.2,0.1-0.5,0.3-0.7l4-4.5C7.2,0,7.8,0,8.2,0.3c0.4,0.4,0.5,1,0.1,1.4L4.9,5.5l3.4,3.8c0.4,0.4,0.3,1-0.1,1.4c-0.4,0.4-1,0.3-1.4-0.1l-4-4.5C2.6,6.1,2.5,5.8,2.5,5.6z"/>
    </symbol>
    <symbol id="chevron_right" viewBox="0 0 11 11">
      <path d="M8.5,5.4c0,0.2-0.1,0.5-0.3,0.7l-4,4.5c-0.4,0.4-1,0.4-1.4,0.1c-0.4-0.4-0.5-1-0.1-1.4l3.4-3.8L2.7,1.7c-0.4-0.4-0.3-1,0.1-1.4s1-0.3,1.4,0.1l4,4.5C8.4,4.9,8.5,5.2,8.5,5.4z"/>
    </symbol>
    <symbol id="search_icon" viewBox="0 0 24 24">
      <path d="M22.3,23.3c-0.3,0-0.5-0.1-0.7-0.3l-3.3-3.3c-1.9,1.6-4.3,2.5-6.9,2.5c-5.9,0-10.8-4.8-10.8-10.8c0-6,4.8-10.8,10.8-10.8c5.9,0,10.8,4.8,10.8,10.8c0,2.6-0.9,5-2.5,6.9l3.3,3.3c0.4,0.4,0.4,1,0,1.4C22.8,23.3,22.6,23.3,22.3,23.3z M11.4,2.7c-4.8,0-8.8,4-8.8,8.8c0,4.9,3.9,8.8,8.8,8.8c4.8,0,8.8-4,8.8-8.8S16.2,2.7,11.4,2.7z"/>
    </symbol>
    <symbol id="arrow_top_right" viewBox="0 0 18 18">
      <path d="M15 4C15 3.44772 14.5523 3 14 3L5 3C4.44772 3 4 3.44772 4 4C4 4.55229 4.44772 5 5 5L13 5L13 13C13 13.5523 13.4477 14 14 14C14.5523 14 15 13.5523 15 13L15 4ZM4.70711 14.7071L14.7071 4.70711L13.2929 3.29289L3.29289 13.2929L4.70711 14.7071Z"/>
    </symbol>
    <symbol id="chart_pie_icon" viewBox="0 0 18 18">
      <path d="M8.96211 0.000475935C7.59149 -0.00201873 6.23863 0.312353 5.00795 0.919326C3.77728 1.5263 2.70169 2.40964 1.86421 3.50117C1.02673 4.5927 0.449762 5.86323 0.177833 7.21469C-0.094096 8.56614 -0.0537116 9.96239 0.295869 11.2957C0.64545 12.6289 1.29488 13.8635 2.19403 14.9042C3.09318 15.9449 4.218 16.7639 5.48168 17.2978C6.74536 17.8318 8.1141 18.0665 9.48225 17.9838C10.8504 17.9011 12.1814 17.5033 13.3724 16.821H13.4351H13.4798C15.2021 15.8347 16.5501 14.3009 17.3122 12.4604C18.0743 10.6199 18.2072 8.57698 17.6903 6.65223C17.1733 4.72749 16.0357 3.02992 14.456 1.826C12.8762 0.622084 10.9438 -0.0200215 8.96211 0.000475935ZM9.8567 1.86343C11.4312 2.0643 12.8947 2.78599 14.0169 3.915C15.1392 5.04401 15.8566 6.51629 16.0562 8.10027H9.8567V1.86343ZM8.96211 16.2001C7.15011 16.1876 5.41027 15.4842 4.09368 14.2317C2.77709 12.9792 1.98179 11.2709 1.86826 9.45149C1.75473 7.63213 2.33144 5.83718 3.482 4.42887C4.63255 3.02055 6.27129 2.10373 8.06751 1.86343V9.00025C8.07104 9.10799 8.0922 9.21441 8.13013 9.31524V9.38723V9.45023L11.7085 15.6331C10.8405 16.0068 9.90625 16.1997 8.96211 16.2001ZM13.283 14.7241L10.5097 9.90022H16.0562C15.9358 10.8493 15.6285 11.7648 15.1523 12.593C14.6762 13.4213 14.0407 14.1458 13.283 14.7241Z"/>
    </symbol>
    <symbol id="chart_line_icon" viewBox="0 0 18 18">
      <path d="M4.95 12.6C5.30804 12.6 5.65142 12.4578 5.90459 12.2046C6.15777 11.9514 6.3 11.608 6.3 11.25C6.30439 11.2051 6.30439 11.1599 6.3 11.115L8.811 8.604H9.018H9.225L10.674 10.053C10.674 10.053 10.674 10.098 10.674 10.125C10.674 10.483 10.8162 10.8264 11.0694 11.0796C11.3226 11.3328 11.666 11.475 12.024 11.475C12.382 11.475 12.7254 11.3328 12.9786 11.0796C13.2318 10.8264 13.374 10.483 13.374 10.125V10.053L16.65 6.75C16.917 6.75 17.178 6.67082 17.4 6.52248C17.622 6.37414 17.7951 6.1633 17.8972 5.91662C17.9994 5.66994 18.0261 5.3985 17.9741 5.13663C17.922 4.87475 17.7934 4.63421 17.6046 4.44541C17.4158 4.2566 17.1752 4.12803 16.9134 4.07594C16.6515 4.02385 16.3801 4.05058 16.1334 4.15276C15.8867 4.25494 15.6759 4.42797 15.5275 4.64998C15.3792 4.87199 15.3 5.133 15.3 5.4C15.2956 5.44489 15.2956 5.49011 15.3 5.535L12.051 8.784H11.907L10.35 7.2C10.35 6.84196 10.2078 6.49858 9.95459 6.24541C9.70142 5.99223 9.35804 5.85 9 5.85C8.64196 5.85 8.29858 5.99223 8.04541 6.24541C7.79223 6.49858 7.65 6.84196 7.65 7.2L4.95 9.9C4.59196 9.9 4.24858 10.0422 3.99541 10.2954C3.74223 10.5486 3.6 10.892 3.6 11.25C3.6 11.608 3.74223 11.9514 3.99541 12.2046C4.24858 12.4578 4.59196 12.6 4.95 12.6ZM17.1 16.2H1.8V0.9C1.8 0.661305 1.70518 0.432387 1.5364 0.263604C1.36761 0.0948211 1.13869 0 0.9 0C0.661305 0 0.432387 0.0948211 0.263604 0.263604C0.0948211 0.432387 0 0.661305 0 0.9V17.1C0 17.3387 0.0948211 17.5676 0.263604 17.7364C0.432387 17.9052 0.661305 18 0.9 18H17.1C17.3387 18 17.5676 17.9052 17.7364 17.7364C17.9052 17.5676 18 17.3387 18 17.1C18 16.8613 17.9052 16.6324 17.7364 16.4636C17.5676 16.2948 17.3387 16.2 17.1 16.2Z"/>
    </symbol>
    <symbol id="chart_columns_icon" viewBox="0 0 18 18">
      <path d="M17.1 16.2H16.2V2.7C16.2 2.46131 16.1052 2.23239 15.9364 2.0636C15.7676 1.89482 15.5387 1.8 15.3 1.8C15.0613 1.8 14.8324 1.89482 14.6636 2.0636C14.4948 2.23239 14.4 2.46131 14.4 2.7V16.2H12.6V6.3C12.6 6.06131 12.5052 5.83239 12.3364 5.6636C12.1676 5.49482 11.9387 5.4 11.7 5.4C11.4613 5.4 11.2324 5.49482 11.0636 5.6636C10.8948 5.83239 10.8 6.06131 10.8 6.3V16.2H9V9.9C9 9.6613 8.90518 9.43239 8.7364 9.2636C8.56761 9.09482 8.33869 9 8.1 9C7.8613 9 7.63239 9.09482 7.4636 9.2636C7.29482 9.43239 7.2 9.6613 7.2 9.9V16.2H5.4V13.5C5.4 13.2613 5.30518 13.0324 5.1364 12.8636C4.96761 12.6948 4.73869 12.6 4.5 12.6C4.2613 12.6 4.03239 12.6948 3.8636 12.8636C3.69482 13.0324 3.6 13.2613 3.6 13.5V16.2H1.8V0.9C1.8 0.661305 1.70518 0.432387 1.5364 0.263604C1.36761 0.0948211 1.13869 0 0.9 0C0.661305 0 0.432387 0.0948211 0.263604 0.263604C0.0948211 0.432387 0 0.661305 0 0.9V17.1C0 17.3387 0.0948211 17.5676 0.263604 17.7364C0.432387 17.9052 0.661305 18 0.9 18H17.1C17.3387 18 17.5676 17.9052 17.7364 17.7364C17.9052 17.5676 18 17.3387 18 17.1C18 16.8613 17.9052 16.6324 17.7364 16.4636C17.5676 16.2948 17.3387 16.2 17.1 16.2Z"/>
    </symbol>
    <symbol id="chart_vector_icon" viewBox="0 0 18 18">
      <path d="M17.1,9.8c-0.2,0-0.5-0.1-0.6-0.2c-0.2-0.2-0.3-0.4-0.3-0.6V6.8l-5.7,5.2c-0.1,0.1-0.2,0.1-0.3,0.2c-0.1,0-0.2,0.1-0.3,0.1c-0.1,0-0.2,0-0.3-0.1c-0.1,0-0.2-0.1-0.3-0.2l-3-2.7l-4.8,4.4C1.4,13.9,1.1,14,0.9,14c-0.2,0-0.5-0.1-0.6-0.2C0.1,13.6,0,13.4,0,13.2s0.1-0.4,0.3-0.6l5.4-5C5.7,7.5,5.8,7.4,6,7.4c0.1,0,0.2-0.1,0.3-0.1c0.1,0,0.2,0,0.3,0.1c0.1,0,0.2,0.1,0.3,0.2l3,2.7l5-4.7h-2.3c-0.2,0-0.5-0.1-0.6-0.2c-0.2-0.2-0.3-0.4-0.3-0.6c0-0.2,0.1-0.4,0.3-0.6C12.1,4.1,12.4,4,12.6,4h4.5c0.1,0,0.2,0,0.3,0.1c0.2,0.1,0.4,0.2,0.5,0.4C18,4.6,18,4.7,18,4.8V9c0,0.2-0.1,0.4-0.3,0.6C17.6,9.7,17.3,9.8,17.1,9.8z"/>
    </symbol>
    <symbol id="calendar_icon" viewBox="0 0 24 24">
    	<path d="M18.2,21H5.8C4.2,21,3,19.9,3,18.4V7.6C3,6.1,4.2,5,5.8,5h12.4C19.8,5,21,6.1,21,7.6v10.9C21,19.9,19.8,21,18.2,21z M5.8,7C5.4,7,5,7.3,5,7.6v10.9C5,18.7,5.4,19,5.8,19h12.4c0.4,0,0.8-0.3,0.8-0.6V7.6C19,7.3,18.6,7,18.2,7H5.8z"/>
    	<path d="M19,12H5c-0.6,0-1-0.4-1-1s0.4-1,1-1h14c0.6,0,1,0.4,1,1S19.6,12,19,12z"/>
    	<path d="M16,9c-0.6,0-1-0.4-1-1V4c0-0.6,0.4-1,1-1s1,0.4,1,1v4C17,8.6,16.6,9,16,9z"/>
    	<path d="M8,9C7.4,9,7,8.6,7,8V4c0-0.6,0.4-1,1-1s1,0.4,1,1v4C9,8.6,8.6,9,8,9z"/>
    </symbol>
    <symbol id="triangle_down" viewBox="0 0 10 10">
      <path d="M5.9,7.5c-0.4,0.7-1.4,0.7-1.7,0l-2.3-4C1.5,2.8,2,2,2.7,2h4.5C8,2,8.5,2.8,8.1,3.5L5.9,7.5z"/>
    </symbol>
    <symbol id="triangle_up" viewBox="0 0 10 10">
      <path d="M4.1,2.5c0.4-0.7,1.4-0.7,1.7,0l2.3,4C8.5,7.2,8,8,7.3,8H2.7C2,8,1.5,7.2,1.9,6.5L4.1,2.5z"/>
    </symbol>
    <symbol id="alert_icon" viewBox="0 0 24 24">
      <path d="M12,23C5.9,23,1,18.1,1,12S5.9,1,12,1s11,4.9,11,11S18.1,23,12,23z M12,3c-5,0-9,4-9,9c0,5,4,9,9,9c5,0,9-4,9-9C21,7,17,3,12,3z"/>
      <path d="M12,17c-0.6,0-1-0.4-1-1s0.4-1,1-1h0c0.6,0,1,0.4,1,1S12.6,17,12,17z"/>
      <path d="M12,13c-0.6,0-1-0.4-1-1V8c0-0.6,0.4-1,1-1c0.6,0,1,0.4,1,1v4C13,12.6,12.6,13,12,13z"/>
    </symbol>
    <symbol id="image_icon" viewBox="0 0 17 17">
      <path d="M13.4584 1.41699H3.54169C2.9781 1.41699 2.4376 1.64088 2.03909 2.03939C1.64057 2.43791 1.41669 2.97841 1.41669 3.54199V13.4587C1.41669 14.0222 1.64057 14.5627 2.03909 14.9613C2.4376 15.3598 2.9781 15.5837 3.54169 15.5837H13.4584C13.5749 15.582 13.691 15.5702 13.8054 15.5482L14.0179 15.4987H14.0675H14.1029L14.365 15.3995L14.4571 15.3499C14.5279 15.3074 14.6059 15.272 14.6767 15.2224C14.7713 15.1528 14.8612 15.0771 14.9459 14.9957L14.9954 14.932C15.065 14.8615 15.1289 14.7857 15.1867 14.7053L15.2504 14.6132C15.2999 14.5344 15.3426 14.4514 15.3779 14.3653C15.3974 14.3313 15.414 14.2958 15.4275 14.2591C15.4629 14.1741 15.4842 14.082 15.5125 13.9899V13.8837C15.5527 13.7453 15.5765 13.6026 15.5834 13.4587V3.54199C15.5834 2.97841 15.3595 2.43791 14.961 2.03939C14.5624 1.64088 14.0219 1.41699 13.4584 1.41699ZM3.54169 14.167C3.35383 14.167 3.17366 14.0924 3.04082 13.9595C2.90798 13.8267 2.83335 13.6465 2.83335 13.4587V10.4057L5.16377 8.06824C5.22962 8.00185 5.30796 7.94916 5.39428 7.91319C5.4806 7.87723 5.57318 7.85872 5.66669 7.85872C5.7602 7.85872 5.85278 7.87723 5.9391 7.91319C6.02541 7.94916 6.10375 8.00185 6.1696 8.06824L12.2613 14.167H3.54169ZM14.1667 13.4587C14.166 13.546 14.1492 13.6324 14.1171 13.7137C14.1009 13.7482 14.082 13.7814 14.0604 13.8128C14.0415 13.8428 14.0202 13.8712 13.9967 13.8978L10.2071 10.1082L10.8304 9.48491C10.8963 9.41852 10.9746 9.36582 11.0609 9.32986C11.1473 9.2939 11.2398 9.27539 11.3334 9.27539C11.4269 9.27539 11.5194 9.2939 11.6058 9.32986C11.6921 9.36582 11.7704 9.41852 11.8363 9.48491L14.1667 11.8224V13.4587ZM14.1667 9.81783L12.835 8.50033C12.4297 8.1157 11.8922 7.90127 11.3334 7.90127C10.7746 7.90127 10.2371 8.1157 9.83169 8.50033L9.20835 9.12366L7.16835 7.08366C6.76299 6.69903 6.22549 6.48461 5.66669 6.48461C5.10788 6.48461 4.57038 6.69903 4.16502 7.08366L2.83335 8.40116V3.54199C2.83335 3.35413 2.90798 3.17396 3.04082 3.04113C3.17366 2.90829 3.35383 2.83366 3.54169 2.83366H13.4584C13.6462 2.83366 13.8264 2.90829 13.9592 3.04113C14.0921 3.17396 14.1667 3.35413 14.1667 3.54199V9.81783Z"/>
    </symbol>
    <symbol id="play_icon" viewBox="0 0 17 17">
      <path d="M13.8125 7.88375L3.89582 2.16042C3.78814 2.09825 3.66599 2.06552 3.54165 2.06552C3.41731 2.06552 3.29517 2.09825 3.18749 2.16042C3.07939 2.22282 2.98971 2.31269 2.92751 2.4209C2.86532 2.52912 2.83282 2.65185 2.83332 2.77667V14.2233C2.83282 14.3481 2.86532 14.4709 2.92751 14.5791C2.98971 14.6873 3.07939 14.7772 3.18749 14.8396C3.29517 14.9018 3.41731 14.9345 3.54165 14.9345C3.66599 14.9345 3.78814 14.9018 3.89582 14.8396L13.8125 9.11625C13.9215 9.05447 14.0122 8.96488 14.0753 8.85662C14.1383 8.74836 14.1716 8.6253 14.1716 8.5C14.1716 8.3747 14.1383 8.25164 14.0753 8.14338C14.0122 8.03512 13.9215 7.94553 13.8125 7.88375ZM4.24999 12.9979V4.00208L12.0417 8.5L4.24999 12.9979Z"/>
    </symbol>
    <symbol id="archive_icon" viewBox="0 0 24 24">
      <path d="M12.5,21.5h-0.9c-3.7,0-5.7,0-7.1-1.4C3,18.7,3,16.7,3,13.1V7.5c0-0.6,0.4-1,1-1s1,0.4,1,1v5.6c0,3.4,0,4.9,0.8,5.6c0.8,0.8,2.5,0.8,5.7,0.8h0.9c3.3,0,4.9,0,5.7-0.8c0.8-0.8,0.8-2.2,0.8-5.6V7.5c0-0.6,0.4-1,1-1s1,0.4,1,1v5.6c0,3.7,0,5.7-1.4,7.1C18.2,21.5,16.2,21.5,12.5,21.5z"/>
    	<path d="M20,8.5H4c-1.1,0-1.8,0-2.4-0.6S1,6.6,1,5.5s0-1.8,0.6-2.4S2.9,2.5,4,2.5h16c1.1,0,1.8,0,2.4,0.6S23,4.4,23,5.5s0,1.8-0.6,2.4S21.1,8.5,20,8.5z M3,6.5c0.2,0,0.6,0,1,0h16c0.4,0,0.8,0,1,0c0-0.2,0-0.6,0-1s0-0.8,0-1c-0.2,0-0.6,0-1,0H4c-0.4,0-0.8,0-1,0c0,0.2,0,0.6,0,1S3,6.3,3,6.5z"/>
    	<path d="M15,16.5H9c-1.1,0-2-0.9-2-2v-2c0-1.1,0.9-2,2-2h6c1.1,0,2,0.9,2,2v2C17,15.6,16.1,16.5,15,16.5z M9,12.5L9,12.5v2h6v-2H9z"/>
    </symbol>
    <symbol id="close_icon" viewBox="0 0 24 24">
      <path d="M2,23c-0.3,0-0.5-0.1-0.7-0.3c-0.4-0.4-0.4-1,0-1.4l20-20c0.4-0.4,1-0.4,1.4,0s0.4,1,0,1.4l-20,20C2.5,22.9,2.3,23,2,23z"/>
      <path d="M22,23c-0.3,0-0.5-0.1-0.7-0.3l-20-20c-0.4-0.4-0.4-1,0-1.4s1-0.4,1.4,0l20,20c0.4,0.4,0.4,1,0,1.4C22.5,22.9,22.3,23,22,23z"/>
    </symbol>
    <symbol id="double_arrow_icon" viewBox="0 0 12 27">
      <path d="M10,9.5c-0.3,0-0.5-0.1-0.7-0.3L6,5.9L2.7,9.2c-0.4,0.4-1,0.4-1.4,0s-0.4-1,0-1.4l4-4c0.4-0.4,1-0.4,1.4,0l4,4c0.4,0.4,0.4,1,0,1.4C10.5,9.4,10.3,9.5,10,9.5z"/>
      <path d="M6,23.5c-0.3,0-0.5-0.1-0.7-0.3l-4-4c-0.4-0.4-0.4-1,0-1.4s1-0.4,1.4,0L6,21.1l3.3-3.3c0.4-0.4,1-0.4,1.4,0s0.4,1,0,1.4l-4,4C6.5,23.4,6.3,23.5,6,23.5z"/>
    </symbol>
    <symbol id="delete_icon" viewBox="0 0 12 12">
      <path d="M1.5,11.5c-0.3,0-0.5-0.1-0.7-0.3c-0.4-0.4-0.4-1,0-1.4l8.9-8.9c0.4-0.4,1-0.4,1.4,0s0.4,1,0,1.4l-8.9,8.9C2.1,11.4,1.8,11.5,1.5,11.5z"/>
      <path d="M10.5,11.5c-0.3,0-0.5-0.1-0.7-0.3L0.8,2.2c-0.4-0.4-0.4-1,0-1.4s1-0.4,1.4,0l8.9,8.9c0.4,0.4,0.4,1,0,1.4C11,11.4,10.7,11.5,10.5,11.5z"/>
    </symbol>
</svg>
