<svg width="24" height="24" fill="#9AA7C3" xmlns="http://www.w3.org/2000/svg" viewBox="0 0 24 24"><path d="M18.2,21H5.8C4.2,21,3,19.9,3,18.4V7.6C3,6.1,4.2,5,5.8,5h12.4C19.8,5,21,6.1,21,7.6v10.9C21,19.9,19.8,21,18.2,21z M5.8,7C5.4,7,5,7.3,5,7.6v10.9C5,18.7,5.4,19,5.8,19h12.4c0.4,0,0.8-0.3,0.8-0.6V7.6C19,7.3,18.6,7,18.2,7H5.8z"/><path d="M19,12H5c-0.6,0-1-0.4-1-1s0.4-1,1-1h14c0.6,0,1,0.4,1,1S19.6,12,19,12z"/><path d="M16,9c-0.6,0-1-0.4-1-1V4c0-0.6,0.4-1,1-1s1,0.4,1,1v4C17,8.6,16.6,9,16,9z"/><path d="M8,9C7.4,9,7,8.6,7,8V4c0-0.6,0.4-1,1-1s1,0.4,1,1v4C9,8.6,8.6,9,8,9z"/></svg>
