<svg xmlns="http://www.w3.org/2000/svg" viewBox="0 0 18 18">
<path d="M17.1,9.8c-0.2,0-0.5-0.1-0.6-0.2c-0.2-0.2-0.3-0.4-0.3-0.6V6.8l-5.7,5.2c-0.1,0.1-0.2,0.1-0.3,0.2c-0.1,0-0.2,0.1-0.3,0.1c-0.1,0-0.2,0-0.3-0.1c-0.1,0-0.2-0.1-0.3-0.2l-3-2.7l-4.8,4.4C1.4,13.9,1.1,14,0.9,14c-0.2,0-0.5-0.1-0.6-0.2C0.1,13.6,0,13.4,0,13.2s0.1-0.4,0.3-0.6l5.4-5C5.7,7.5,5.8,7.4,6,7.4c0.1,0,0.2-0.1,0.3-0.1c0.1,0,0.2,0,0.3,0.1c0.1,0,0.2,0.1,0.3,0.2l3,2.7l5-4.7h-2.3c-0.2,0-0.5-0.1-0.6-0.2c-0.2-0.2-0.3-0.4-0.3-0.6c0-0.2,0.1-0.4,0.3-0.6C12.1,4.1,12.4,4,12.6,4h4.5c0.1,0,0.2,0,0.3,0.1c0.2,0.1,0.4,0.2,0.5,0.4C18,4.6,18,4.7,18,4.8V9c0,0.2-0.1,0.4-0.3,0.6C17.6,9.7,17.3,9.8,17.1,9.8z"/>
</svg>
