<svg xmlns="http://www.w3.org/2000/svg" viewBox="0 0 18 18">
<path d="M15,17.3H8.3C7,17.3,6,16.2,6,15V8.3C6,7,7,6,8.3,6H15c1.2,0,2.3,1,2.3,2.3V15C17.3,16.2,16.2,17.3,15,17.3zM8.3,7.5c-0.4,0-0.8,0.3-0.8,0.8V15c0,0.4,0.3,0.8,0.8,0.8H15c0.4,0,0.8-0.3,0.8-0.8V8.3c0-0.4-0.3-0.8-0.8-0.8H8.3z"/>
<path d="M3.8,12H3c-0.6,0-1.2-0.2-1.6-0.7c-0.4-0.4-0.7-1-0.7-1.6V3c0-0.6,0.2-1.2,0.7-1.6C1.8,1,2.4,0.8,3,0.8h6.8c0.6,0,1.2,0.2,1.6,0.7C11.8,1.8,12,2.4,12,3v0.8c0,0.4-0.3,0.8-0.8,0.8s-0.8-0.3-0.8-0.8V3c0-0.2-0.1-0.4-0.2-0.5c-0.1-0.1-0.3-0.2-0.5-0.2H3c-0.2,0-0.4,0.1-0.5,0.2S2.3,2.8,2.3,3v6.8c0,0.2,0.1,0.4,0.2,0.5c0.1,0.1,0.3,0.2,0.5,0.2h0.8c0.4,0,0.8,0.3,0.8,0.8S4.2,12,3.8,12z"/>
</svg>
