<svg xmlns="http://www.w3.org/2000/svg" viewBox="0 0 512 512">
<path d="M32,80c0-26.5,21.5-48,48-48h96c26.5,0,48,21.5,48,48v96c0,26.5-21.5,48-48,48H80c-26.5,0-48-21.5-48-48V80z M64,80v96c0,8.8,7.2,16,16,16h96c8.8,0,16-7.2,16-16V80c0-8.8-7.2-16-16-16H80C71.2,64,64,71.2,64,80z M32,336c0-26.5,21.5-48,48-48h96c26.5,0,48,21.5,48,48v96c0,26.5-21.5,48-48,48H80c-26.5,0-48-21.5-48-48V336z M64,336v96c0,8.8,7.2,16,16,16h96c8.8,0,16-7.2,16-16v-96c0-8.8-7.2-16-16-16H80C71.2,320,64,327.2,64,336z M432,32c26.5,0,48,21.5,48,48v96c0,26.5-21.5,48-48,48h-96c-26.5,0-48-21.5-48-48V80c0-26.5,21.5-48,48-48H432z M432,64h-96c-8.8,0-16,7.2-16,16v96c0,8.8,7.2,16,16,16h96c8.8,0,16-7.2,16-16V80C448,71.2,440.8,64,432,64z M288,336c0-26.5,21.5-48,48-48h96c26.5,0,48,21.5,48,48v96c0,26.5-21.5,48-48,48h-96c-26.5,0-48-21.5-48-48V336z M320,336v96c0,8.8,7.2,16,16,16h96c8.8,0,16-7.2,16-16v-96c0-8.8-7.2-16-16-16h-96C327.2,320,320,327.2,320,336z"/>
</svg>
