<?xml version="1.0" encoding="utf-8"?>
<!-- Generator: Adobe Illustrator 19.2.1, SVG Export Plug-In . SVG Version: 6.00 Build 0)  -->
<svg version="1.1" id="Слой_1" xmlns="http://www.w3.org/2000/svg" xmlns:xlink="http://www.w3.org/1999/xlink" x="0px" y="0px"
	 viewBox="0 0 17 17" style="enable-background:new 0 0 17 17;" xml:space="preserve">
<path d="M4,14c-0.3,0-0.5-0.1-0.7-0.3c-0.4-0.4-0.4-1,0-1.4l8.9-8.9c0.4-0.4,1-0.4,1.4,0s0.4,1,0,1.4l-8.9,8.9C4.6,13.9,4.3,14,4,14z"/>
<path d="M13,14c-0.3,0-0.5-0.1-0.7-0.3L3.3,4.7c-0.4-0.4-0.4-1,0-1.4s1-0.4,1.4,0l8.9,8.9c0.4,0.4,0.4,1,0,1.4C13.5,13.9,13.2,14,13,14z"/>
</svg>
