<svg width="26" height="26" viewBox="0 0 26 26" fill="none" xmlns="http://www.w3.org/2000/svg">
<path d="M9.75004 10.8332H10.8334C11.1207 10.8332 11.3962 10.719 11.5994 10.5159C11.8026 10.3127 11.9167 10.0372 11.9167 9.74984C11.9167 9.46252 11.8026 9.18697 11.5994 8.9838C11.3962 8.78064 11.1207 8.6665 10.8334 8.6665H9.75004C9.46272 8.6665 9.18717 8.78064 8.98401 8.9838C8.78084 9.18697 8.66671 9.46252 8.66671 9.74984C8.66671 10.0372 8.78084 10.3127 8.98401 10.5159C9.18717 10.719 9.46272 10.8332 9.75004 10.8332ZM9.75004 12.9998C9.46272 12.9998 9.18717 13.114 8.98401 13.3171C8.78084 13.5203 8.66671 13.7959 8.66671 14.0832C8.66671 14.3705 8.78084 14.646 8.98401 14.8492C9.18717 15.0524 9.46272 15.1665 9.75004 15.1665H16.25C16.5374 15.1665 16.8129 15.0524 17.0161 14.8492C17.2192 14.646 17.3334 14.3705 17.3334 14.0832C17.3334 13.7959 17.2192 13.5203 17.0161 13.3171C16.8129 13.114 16.5374 12.9998 16.25 12.9998H9.75004ZM21.6667 9.68484C21.6554 9.58532 21.6336 9.48727 21.6017 9.39234V9.29484C21.5496 9.18345 21.4801 9.08106 21.3959 8.9915L14.8959 2.4915C14.8063 2.40724 14.7039 2.33776 14.5925 2.28567C14.5602 2.28108 14.5274 2.28108 14.495 2.28567C14.385 2.22256 14.2634 2.18204 14.1375 2.1665H7.58337C6.72142 2.1665 5.89477 2.50891 5.28528 3.11841C4.67578 3.7279 4.33337 4.55455 4.33337 5.4165V20.5832C4.33337 21.4451 4.67578 22.2718 5.28528 22.8813C5.89477 23.4908 6.72142 23.8332 7.58337 23.8332H18.4167C19.2787 23.8332 20.1053 23.4908 20.7148 22.8813C21.3243 22.2718 21.6667 21.4451 21.6667 20.5832V9.74984C21.6667 9.74984 21.6667 9.74984 21.6667 9.68484ZM15.1667 5.86067L17.9725 8.6665H16.25C15.9627 8.6665 15.6872 8.55237 15.484 8.3492C15.2808 8.14604 15.1667 7.87049 15.1667 7.58317V5.86067ZM19.5 20.5832C19.5 20.8705 19.3859 21.146 19.1827 21.3492C18.9796 21.5524 18.704 21.6665 18.4167 21.6665H7.58337C7.29606 21.6665 7.02051 21.5524 6.81734 21.3492C6.61418 21.146 6.50004 20.8705 6.50004 20.5832V5.4165C6.50004 5.12919 6.61418 4.85364 6.81734 4.65047C7.02051 4.44731 7.29606 4.33317 7.58337 4.33317H13V7.58317C13 8.44512 13.3425 9.27177 13.9519 9.88127C14.5614 10.4908 15.3881 10.8332 16.25 10.8332H19.5V20.5832ZM16.25 17.3332H9.75004C9.46272 17.3332 9.18717 17.4473 8.98401 17.6505C8.78084 17.8536 8.66671 18.1292 8.66671 18.4165C8.66671 18.7038 8.78084 18.9794 8.98401 19.1825C9.18717 19.3857 9.46272 19.4998 9.75004 19.4998H16.25C16.5374 19.4998 16.8129 19.3857 17.0161 19.1825C17.2192 18.9794 17.3334 18.7038 17.3334 18.4165C17.3334 18.1292 17.2192 17.8536 17.0161 17.6505C16.8129 17.4473 16.5374 17.3332 16.25 17.3332Z"/>
</svg>
