<svg width="17" height="17" viewBox="0 0 17 17" fill="none" xmlns="http://www.w3.org/2000/svg">
<path d="M13.4584 1.41699H3.54169C2.9781 1.41699 2.4376 1.64088 2.03909 2.03939C1.64057 2.43791 1.41669 2.97841 1.41669 3.54199V13.4587C1.41669 14.0222 1.64057 14.5627 2.03909 14.9613C2.4376 15.3598 2.9781 15.5837 3.54169 15.5837H13.4584C13.5749 15.582 13.691 15.5702 13.8054 15.5482L14.0179 15.4987H14.0675H14.1029L14.365 15.3995L14.4571 15.3499C14.5279 15.3074 14.6059 15.272 14.6767 15.2224C14.7713 15.1528 14.8612 15.0771 14.9459 14.9957L14.9954 14.932C15.065 14.8615 15.1289 14.7857 15.1867 14.7053L15.2504 14.6132C15.2999 14.5344 15.3426 14.4514 15.3779 14.3653C15.3974 14.3313 15.414 14.2958 15.4275 14.2591C15.4629 14.1741 15.4842 14.082 15.5125 13.9899V13.8837C15.5527 13.7453 15.5765 13.6026 15.5834 13.4587V3.54199C15.5834 2.97841 15.3595 2.43791 14.961 2.03939C14.5624 1.64088 14.0219 1.41699 13.4584 1.41699ZM3.54169 14.167C3.35383 14.167 3.17366 14.0924 3.04082 13.9595C2.90798 13.8267 2.83335 13.6465 2.83335 13.4587V10.4057L5.16377 8.06824C5.22962 8.00185 5.30796 7.94916 5.39428 7.91319C5.4806 7.87723 5.57318 7.85872 5.66669 7.85872C5.7602 7.85872 5.85278 7.87723 5.9391 7.91319C6.02541 7.94916 6.10375 8.00185 6.1696 8.06824L12.2613 14.167H3.54169ZM14.1667 13.4587C14.166 13.546 14.1492 13.6324 14.1171 13.7137C14.1009 13.7482 14.082 13.7814 14.0604 13.8128C14.0415 13.8428 14.0202 13.8712 13.9967 13.8978L10.2071 10.1082L10.8304 9.48491C10.8963 9.41852 10.9746 9.36582 11.0609 9.32986C11.1473 9.2939 11.2398 9.27539 11.3334 9.27539C11.4269 9.27539 11.5194 9.2939 11.6058 9.32986C11.6921 9.36582 11.7704 9.41852 11.8363 9.48491L14.1667 11.8224V13.4587ZM14.1667 9.81783L12.835 8.50033C12.4297 8.1157 11.8922 7.90127 11.3334 7.90127C10.7746 7.90127 10.2371 8.1157 9.83169 8.50033L9.20835 9.12366L7.16835 7.08366C6.76299 6.69903 6.22549 6.48461 5.66669 6.48461C5.10788 6.48461 4.57038 6.69903 4.16502 7.08366L2.83335 8.40116V3.54199C2.83335 3.35413 2.90798 3.17396 3.04082 3.04113C3.17366 2.90829 3.35383 2.83366 3.54169 2.83366H13.4584C13.6462 2.83366 13.8264 2.90829 13.9592 3.04113C14.0921 3.17396 14.1667 3.35413 14.1667 3.54199V9.81783Z"/>
</svg>
