<svg width="25" height="26" viewBox="0 0 25 26" fill="none" xmlns="http://www.w3.org/2000/svg">
<path d="M18 9.5C18 7.9087 17.3679 6.38258 16.2426 5.25736C15.1174 4.13214 13.5913 3.5 12 3.5C10.4087 3.5 8.88258 4.13214 7.75736 5.25736C6.63214 6.38258 6 7.9087 6 9.5C6 16.5 3 18.5 3 18.5H21C21 18.5 18 16.5 18 9.5Z" stroke="black" stroke-width="2" stroke-linecap="round" stroke-linejoin="round"/>
<path d="M13.73 22.5C13.5542 22.8031 13.3019 23.0547 12.9982 23.2295C12.6946 23.4044 12.3504 23.4965 12 23.4965C11.6496 23.4965 11.3054 23.4044 11.0018 23.2295C10.6982 23.0547 10.4458 22.8031 10.27 22.5" stroke="black" stroke-width="2" stroke-linecap="round" stroke-linejoin="round"/>
<circle cx="19" cy="6.5" r="5" fill="#F63F3F" stroke="white" stroke-width="2"/>
</svg>
