<svg width="17" height="17" viewBox="0 0 17 17" fill="none" xmlns="http://www.w3.org/2000/svg">
<path d="M13.8125 7.88375L3.89582 2.16042C3.78814 2.09825 3.66599 2.06552 3.54165 2.06552C3.41731 2.06552 3.29517 2.09825 3.18749 2.16042C3.07939 2.22282 2.98971 2.31269 2.92751 2.4209C2.86532 2.52912 2.83282 2.65185 2.83332 2.77667V14.2233C2.83282 14.3481 2.86532 14.4709 2.92751 14.5791C2.98971 14.6873 3.07939 14.7772 3.18749 14.8396C3.29517 14.9018 3.41731 14.9345 3.54165 14.9345C3.66599 14.9345 3.78814 14.9018 3.89582 14.8396L13.8125 9.11625C13.9215 9.05447 14.0122 8.96488 14.0753 8.85662C14.1383 8.74836 14.1716 8.6253 14.1716 8.5C14.1716 8.3747 14.1383 8.25164 14.0753 8.14338C14.0122 8.03512 13.9215 7.94553 13.8125 7.88375ZM4.24999 12.9979V4.00208L12.0417 8.5L4.24999 12.9979Z"/>
</svg>
