<svg xmlns="http://www.w3.org/2000/svg" viewBox="0 0 24 24">
<path d="M21,7H3C2.4,7,2,6.6,2,6s0.4-1,1-1h18c0.6,0,1,0.4,1,1S21.6,7,21,7z"/>
<path d="M17,23H7c-0.8,0-1.6-0.3-2.1-0.9C4.3,21.6,4,20.8,4,20V6c0-0.6,0.4-1,1-1h2V4c0-0.8,0.3-1.6,0.9-2.1C8.4,1.3,9.2,1,10,1h4c0.8,0,1.6,0.3,2.1,0.9C16.7,2.4,17,3.2,17,4v1h2c0.6,0,1,0.4,1,1v14c0,0.8-0.3,1.6-0.9,2.1S17.8,23,17,23z M6,7v13c0,0.3,0.1,0.5,0.3,0.7C6.5,20.9,6.7,21,7,21h10c0.3,0,0.5-0.1,0.7-0.3S18,20.3,18,20V7H6z M9,5h6V4c0-0.3-0.1-0.5-0.3-0.7C14.5,3.1,14.3,3,14,3h-4C9.7,3,9.5,3.1,9.3,3.3C9.1,3.5,9,3.7,9,4V5z"/>
<path d="M14,18c-0.6,0-1-0.4-1-1v-6c0-0.6,0.4-1,1-1s1,0.4,1,1v6C15,17.6,14.6,18,14,18z"/>
<path d="M10,18c-0.6,0-1-0.4-1-1v-6c0-0.6,0.4-1,1-1s1,0.4,1,1v6C11,17.6,10.6,18,10,18z"/>
</svg>
