<?xml version="1.0" encoding="utf-8"?>
<!-- Generator: Adobe Illustrator 19.2.1, SVG Export Plug-In . SVG Version: 6.00 Build 0)  -->
<svg version="1.1" id="Слой_1" xmlns="http://www.w3.org/2000/svg" xmlns:xlink="http://www.w3.org/1999/xlink" x="0px" y="0px"
	 viewBox="0 0 24 24" style="enable-background:new 0 0 24 24;" xml:space="preserve">
<style type="text/css">
	.st0{fill:none;}
</style>
<path d="M12,15c1.1,0,2.1-0.4,2.8-1.2c0.8-0.8,1.2-1.8,1.2-2.8V5c0-1.1-0.4-2.1-1.2-2.8C14.1,1.4,13.1,1,12,1S9.9,1.4,9.2,2.2C8.4,2.9,8,3.9,8,5v6c0,1.1,0.4,2.1,1.2,2.8C9.9,14.6,10.9,15,12,15z M10,5c0-0.5,0.2-1,0.6-1.4C11,3.2,11.5,3,12,3s1,0.2,1.4,0.6C13.8,4,14,4.5,14,5v6c0,0.5-0.2,1-0.6,1.4C13,12.8,12.5,13,12,13s-1-0.2-1.4-0.6C10.2,12,10,11.5,10,11V5z M20,11c0-0.3-0.1-0.5-0.3-0.7C19.5,10.1,19.3,10,19,10s-0.5,0.1-0.7,0.3C18.1,10.5,18,10.7,18,11c0,1.6-0.6,3.1-1.8,4.2C15.1,16.4,13.6,17,12,17s-3.1-0.6-4.2-1.8C6.6,14.1,6,12.6,6,11c0-0.3-0.1-0.5-0.3-0.7C5.5,10.1,5.3,10,5,10c-0.3,0-0.5,0.1-0.7,0.3C4.1,10.5,4,10.7,4,11c0,1.9,0.7,3.8,2,5.3c1.3,1.5,3.1,2.4,5,2.6V21H9c-0.3,0-0.5,0.1-0.7,0.3C8.1,21.5,8,21.7,8,22s0.1,0.5,0.3,0.7C8.5,22.9,8.7,23,9,23h6c0.3,0,0.5-0.1,0.7-0.3S16,22.3,16,22s-0.1-0.5-0.3-0.7S15.3,21,15,21h-2v-2.1c1.9-0.2,3.7-1.2,5-2.6C19.3,14.8,20,12.9,20,11z"/>
</svg>
