<svg width="31" height="30" viewBox="0 0 31 30" fill="none" xmlns="http://www.w3.org/2000/svg">
<path d="M28.6267 15.2915C28.6267 14.2123 28.5373 13.4248 28.3439 12.6082H15.7695V17.4789H23.1504C23.0017 18.6894 22.1981 20.5123 20.4123 21.7372L20.3873 21.9003L24.3631 24.9187L24.6386 24.9456C27.1683 22.656 28.6267 19.2873 28.6267 15.2915" fill="#4285F4"/>
<path d="M15.768 28.125C19.384 28.125 22.4197 26.9582 24.637 24.9458L20.4108 21.7373C19.2799 22.5103 17.762 23.0498 15.768 23.0498C12.2264 23.0498 9.22044 20.7603 8.14891 17.5957L7.99185 17.6088L3.85777 20.7442L3.80371 20.8915C6.00606 25.179 10.5299 28.125 15.768 28.125Z" fill="#34A853"/>
<path d="M8.14972 17.5958C7.86699 16.7792 7.70336 15.9041 7.70336 15C7.70336 14.0958 7.86699 13.2208 8.13485 12.4042L8.12736 12.2302L3.94147 9.04443L3.80451 9.10827C2.89682 10.8875 2.37598 12.8854 2.37598 15C2.37598 17.1146 2.89682 19.1124 3.80451 20.8916L8.14972 17.5958" fill="#FBBC05"/>
<path d="M15.7681 6.94997C18.2829 6.94997 19.9793 8.01454 20.9466 8.90419L24.7264 5.2875C22.405 3.17292 19.3841 1.875 15.7681 1.875C10.5299 1.875 6.00607 4.82081 3.80371 9.10828L8.13406 12.4042C9.22047 9.23958 12.2264 6.94997 15.7681 6.94997" fill="#EB4335"/>
</svg>
