<svg width="145" height="46" viewBox="0 0 145 46" fill="none" xmlns="http://www.w3.org/2000/svg">
<path d="M65.032 33.392C62.1013 33.392 59.6653 32.4213 57.724 30.48C55.8013 28.52 54.84 26.0933 54.84 23.2C54.84 20.3067 55.8013 17.8893 57.724 15.948C59.6653 13.988 62.1013 13.008 65.032 13.008C67.4213 13.008 69.512 13.7267 71.304 15.164C73.1147 16.6013 74.2253 18.44 74.636 20.68H69.96C69.6613 19.672 69.064 18.8693 68.168 18.272C67.272 17.6747 66.2267 17.376 65.032 17.376C63.296 17.376 61.9053 17.908 60.86 18.972C59.8333 20.036 59.32 21.4453 59.32 23.2C59.32 24.9547 59.8333 26.364 60.86 27.428C61.9053 28.492 63.296 29.024 65.032 29.024C66.2267 29.024 67.272 28.7253 68.168 28.128C69.064 27.5307 69.6613 26.728 69.96 25.72H74.636C74.2253 27.96 73.1147 29.7987 71.304 31.236C69.512 32.6733 67.4213 33.392 65.032 33.392ZM87.91 33L82.814 26.56H81.078V33H76.598V13.4H81.078H84.158C86.0246 13.4 87.6113 14.0533 88.918 15.36C90.2246 16.6667 90.878 18.2533 90.878 20.12C90.878 21.2773 90.5606 22.36 89.926 23.368C89.2913 24.376 88.4513 25.1693 87.406 25.748L93.118 33H87.91ZM81.078 17.6V22.64H84.158C84.774 22.64 85.2966 22.3973 85.726 21.912C86.174 21.4267 86.398 20.8293 86.398 20.12C86.398 19.4107 86.174 18.8133 85.726 18.328C85.2966 17.8427 84.774 17.6 84.158 17.6H81.078ZM113.835 13.4V33H109.355V20.988L105.575 29.948H102.495L98.7147 20.988V33H94.2347V13.4H98.7147H99.2747L104.035 24.712L108.795 13.4H113.835Z" fill="#4880FF"/>
<path d="M130.223 33H125.463L121.263 26.868V33H117.063V13.4H121.263V25.076L125.183 19H129.943L125.267 26L130.223 33ZM132.442 20.008C133.562 19.0747 134.943 18.608 136.586 18.608C138.229 18.608 139.61 19.0933 140.73 20.064C141.85 21.016 142.41 22.388 142.41 24.18V33H138.322V31.908C137.463 32.8973 136.259 33.392 134.71 33.392C133.403 33.392 132.302 33.0093 131.406 32.244C130.529 31.4787 130.09 30.4053 130.09 29.024C130.09 27.6427 130.529 26.5693 131.406 25.804C132.302 25.0387 133.403 24.656 134.71 24.656C136.166 24.656 137.37 25.0107 138.322 25.72V24.46C138.322 23.1347 137.743 22.472 136.586 22.472C136.026 22.472 135.597 22.6027 135.298 22.864C134.999 23.1253 134.85 23.4707 134.85 23.9H130.762C130.762 22.2387 131.322 20.9413 132.442 20.008ZM136.194 30.424C136.866 30.424 137.389 30.2933 137.762 30.032C138.135 29.7707 138.322 29.4347 138.322 29.024C138.322 28.5947 138.135 28.2587 137.762 28.016C137.389 27.7547 136.866 27.624 136.194 27.624C135.578 27.624 135.102 27.7547 134.766 28.016C134.449 28.2587 134.29 28.5947 134.29 29.024C134.29 29.4533 134.449 29.7987 134.766 30.06C135.102 30.3027 135.578 30.424 136.194 30.424Z" fill="#202224"/>
<rect width="46" height="46" rx="12" fill="#4880FF"/>
<path d="M8 14.44C8 12.162 8 11.0231 8.45035 10.1561C8.82985 9.42553 9.42553 8.82985 10.1561 8.45035C11.0231 8 12.162 8 14.44 8H15.56C17.838 8 18.9769 8 19.8439 8.45035C20.5745 8.82985 21.1702 9.42553 21.5497 10.1561C22 11.0231 22 12.162 22 14.44V22H14.44C12.162 22 11.0231 22 10.1561 21.5497C9.42553 21.1702 8.82985 20.5745 8.45035 19.8439C8 18.9769 8 17.838 8 15.56V14.44Z" fill="white"/>
<path d="M8 30.44C8 28.162 8 27.0231 8.45035 26.1561C8.82985 25.4255 9.42553 24.8298 10.1561 24.4503C11.0231 24 12.162 24 14.44 24H22V31.56C22 33.838 22 34.9769 21.5497 35.8439C21.1702 36.5745 20.5745 37.1702 19.8439 37.5497C18.9769 38 17.838 38 15.56 38H14.44C12.162 38 11.0231 38 10.1561 37.5497C9.42553 37.1702 8.82985 36.5745 8.45035 35.8439C8 34.9769 8 33.838 8 31.56V30.44Z" fill="white"/>
<path d="M24 14.44C24 12.162 24 11.0231 24.4503 10.1561C24.8298 9.42553 25.4255 8.82985 26.1561 8.45035C27.0231 8 28.162 8 30.44 8H38V15.56C38 17.838 38 18.9769 37.5497 19.8439C37.1702 20.5745 36.5745 21.1702 35.8439 21.5497C34.9769 22 33.838 22 31.56 22H30.44C28.162 22 27.0231 22 26.1561 21.5497C25.4255 21.1702 24.8298 20.5745 24.4503 19.8439C24 18.9769 24 17.838 24 15.56V14.44Z" fill="#AEC6FF"/>
<path d="M24 24H31.56C33.838 24 34.9769 24 35.8439 24.4503C36.5745 24.8298 37.1702 25.4255 37.5497 26.1561C38 27.0231 38 28.162 38 30.44V31.56C38 33.838 38 34.9769 37.5497 35.8439C37.1702 36.5745 36.5745 37.1702 35.8439 37.5497C34.9769 38 33.838 38 31.56 38H30.44C28.162 38 27.0231 38 26.1561 37.5497C25.4255 37.1702 24.8298 36.5745 24.4503 35.8439C24 34.9769 24 33.838 24 31.56V24Z" fill="white"/>
</svg>
